<svg xmlns="http://www.w3.org/2000/svg" xmlns:xlink="http://www.w3.org/1999/xlink" width="531.635" height="165.923" viewBox="0 0 398.726 124.442"><style><![CDATA[.B{font-size:11.955px}.C{font-style:italic}.D{font-family:CMMI12}.E{font-size:7.97px}.F{stroke:#000}.G{fill:none}.H{stroke-miterlimit:10}.I{font-family:CMR12}.J{font-family:CMMI8}.K{stroke-linecap:round}.L{stroke-linejoin:round}.M{stroke-width:1.196}.N{font-family:CMR8}.O{stroke-width:.797}.P{stroke-width:.638}.Q{fill:#ebebeb}.R{stroke-width:.956}.S{stroke-dasharray:2.29143,1.99255}.T{font-family:CMSY10}]]></style><use xlink:href="#B" class="Q"/><use xlink:href="#B" stroke="red" class="G H M"/><text class="B C D"><tspan y="20.871" x="31.28">z</tspan></text><text class="E N"><tspan y="22.664" x="36.718">0</tspan></text><use xlink:href="#C" class="Q"/><text class="B C D"><tspan y="20.871" x="111.086">z</tspan></text><text class="E N"><tspan y="22.664" x="116.524">1</tspan></text><g class="F G"><path d="M50.9 19.194h49.76" class="H M"/><path d="M98.757 16.644c.16.956 1.913 2.4 2.39 2.55-.478.16-2.23 1.594-2.4 2.55" class="K L R"/></g><text class="B C D"><tspan y="12.287" x="61.38">f</tspan></text><text class="E N"><tspan y="14.08" x="67.15">1</tspan></text><text class="B I"><tspan y="12.287" x="71.882">(</tspan></text><text class="B C D"><tspan y="12.287" x="76.434">z</tspan></text><text class="E N"><tspan y="14.08" x="81.872">0</tspan></text><text class="B I"><tspan y="12.287" x="86.605">)</tspan></text><use xlink:href="#C" x="79.808" class="Q"/><text class="B C D"><tspan y="20.871" x="191.568">z</tspan></text><text class="C E J"><tspan y="22.664" x="197.006">i</tspan></text><path d="M286.746 19.194a10.96 10.96 0 0 0-10.96-10.959 10.96 10.96 0 0 0-10.958 10.959 10.96 10.96 0 0 0 10.959 10.959 10.96 10.96 0 0 0 10.959-10.959zm-10.96 0" class="Q"/><text class="B C D"><tspan y="20.456" x="265.964">z</tspan></text><text class="C E J"><tspan y="22.249" x="271.402">i</tspan></text><text class="E N"><tspan y="22.249" x="274.285 280.868">+1</tspan></text><g class="F G"><path d="M210.525 19.194h49.76" class="H M"/><path d="M258.372 16.644c.16.956 1.913 2.4 2.4 2.55-.477.16-2.23 1.594-2.4 2.55" class="K L R"/></g><text class="B C D"><tspan y="12.287" x="216.933">f</tspan></text><text class="C E J"><tspan y="14.08" x="222.703">i</tspan></text><text class="E N"><tspan y="14.08" x="225.586 232.17">+1</tspan></text><text class="B I"><tspan y="12.287" x="236.905">(</tspan></text><text class="B C D"><tspan y="12.287" x="241.457">z</tspan></text><text class="C E J"><tspan y="14.08" x="246.895">i</tspan></text><text class="B I"><tspan y="12.287" x="250.276">)</tspan></text><g class="F G"><path d="M130.718 19.194h49.76" class="H M"/><path d="M178.565 16.644c.16.956 1.912 2.4 2.4 2.55-.478.16-2.23 1.594-2.4 2.55" class="K L R"/></g><path d="M145.885 23.096h20.38v-7.804h-20.38z" fill="#fff"/><text class="B C D"><tspan y="19.775" x="149.205 154.453 159.7">...</tspan></text><use xlink:href="#D" class="Q"/><use xlink:href="#D" stroke="#00b300" class="G H M"/><text class="B C D"><tspan y="20.871" x="350.311">z</tspan></text><text class="C E J"><tspan y="22.664" x="355.749">k</tspan></text><g class="F G"><path d="M290.332 19.194h49.76" class="H M"/><path d="M338.18 16.644c.16.956 1.913 2.4 2.39 2.55-.478.16-2.232 1.594-2.39 2.55" class="K L R"/></g><path d="M305.5 23.096h20.38v-7.804H305.5z" fill="#fff"/><text class="B C D"><tspan y="19.775" x="308.817 314.065 319.302">...</tspan></text><text transform="matrix(1.2 0 0 1.2 -74.37 144.874)" class="B I"><tspan y="-102.16" x="371.849">=</tspan></text><text transform="matrix(1.2 0 0 1.2 -74.37 144.874)" class="B C D"><tspan y="-102.16" x="384.274">x</tspan></text><g class="G H"><path d="M72.332 70.833c0-18.786-15.23-34.016-34.016-34.016S4.3 52.047 4.3 70.833s15.23 34.017 34.016 34.017 34.016-15.23 34.016-34.017zm-34.016 0" class="F O S"/><path stroke="#009" d="M9.97 82.172h1.453l1.453-.01 1.453-.013 1.454-.03 1.453-.06 1.453-.122 1.453-.23 1.454-.41 1.453-.683 1.454-1.08 1.453-1.597 1.453-2.217 1.453-2.872 1.454-3.463 1.453-3.847 1.453-3.896 1.454-3.516 1.453-2.67 1.453-1.452L39.036 54l1.453 1.438 1.453 2.66 1.454 3.507 1.453 3.9 1.453 3.85 1.454 3.464 1.453 2.878 1.453 2.223 1.454 1.605 1.453 1.083 1.453.686 1.454.41 1.453.232 1.453.123 1.454.062 1.453.03 1.453.013 1.454.006 1.453.003" class="M"/><path d="M9.97 82.172h55.985" class="F O"/></g><use xlink:href="#E" class="F G K L P"/><path d="M38.316 96.345v-48.9" class="F G H O"/><path d="M36.244 49c.777-.13 1.943-1.554 2.072-1.943.13.39 1.295 1.813 2.072 1.943" class="F G K L P"/><text class="B C D"><tspan y="118.133" x="8.369">z</tspan></text><text class="E N"><tspan y="119.926" x="13.807">0</tspan></text><text class="B C T"><tspan y="118.133" x="21.86">∼</tspan></text><text class="B C D"><tspan y="118.133" x="34.479">p</tspan></text><text class="E N"><tspan y="119.926" x="40.354">0</tspan></text><text class="B I"><tspan y="118.133" x="45.087">(</tspan></text><text class="B C D"><tspan y="118.133" x="49.639">z</tspan></text><text class="E N"><tspan y="119.926" x="55.077">0</tspan></text><text class="B I"><tspan y="118.133" x="59.809">)</tspan></text><g class="G H"><use xlink:href="#F" class="F O S"/><path stroke="#009" d="M169.582 82.066l.822-.175.82-.412.82-.836.822-1.52.82-2.453.822-3.47.82-4.26.822-4.42.822-3.652.82-1.965.82.266.822 2.35.82 3.753.822 4.185.82 3.73.82 2.728.822 1.588.82.576.822-.205.82-.758.82-1.144.822-1.445.82-1.684.822-1.887.82-2.053.822-2.17.822-2.22.82-2.208.822-2.107.82-1.93.822-1.665.822-1.327.82-.925.82-.473.822-.005.82.467.822.9.82 1.32.82 1.658.822 1.93.82 2.103.822 2.206.82 2.212.822 2.143.822 1.985.82 1.725.82 1.33.822.768.82.022.822-.858.82-1.693 1.643-4.492.82-1.57.822-.33.82 1.118.82 2.34.822 3 .82 3.03.822 2.563.82 1.883.82 1.21.822.69.82.35.822.16.82.067.822.025.822.013h.82" class="M"/><path d="M169.582 82.172h55.986" class="F O"/></g><use xlink:href="#E" x="159.614" class="F G K L P"/><path d="M197.93 96.345v-48.9" class="F G H O"/><path d="M195.857 49c.777-.13 1.942-1.554 2.072-1.943.13.39 1.295 1.813 2.072 1.943" class="F G K L P"/><text class="B C D"><tspan y="118.133" x="170.008">z</tspan></text><text class="C E J"><tspan y="119.926" x="175.446">i</tspan></text><text class="B C T"><tspan y="118.133" x="182.148">∼</tspan></text><text class="B C D"><tspan y="118.133" x="194.767">p</tspan></text><text class="C E J"><tspan y="119.926" x="200.642">i</tspan></text><text class="B I"><tspan y="118.133" x="204.024">(</tspan></text><text class="B C D"><tspan y="118.133" x="208.576">z</tspan></text><text class="C E J"><tspan y="119.926" x="214.014">i</tspan></text><text class="B I"><tspan y="118.133" x="217.395">)</tspan></text><g class="G H"><use xlink:href="#F" x="159.612" class="F O S"/><path stroke="#009" d="M329.194 82.066l.637-.123.637-.24.636-.433.637-.737.637-1.166.636-1.707.637-2.325.637-2.91.636-3.328.637-3.44.637-3.12.637-2.34.636-1.16.637.185.637 1.532.636 2.584.637 3.197.637 3.36.636 3.074.637 2.484.637 1.71.637.885.636.094.637-.607.637-1.185.636-1.597.637-1.822.637-1.8.636-1.57.637-1.096.637-.46.636.244.637.904.637 1.445.637 1.79.636 1.91.637 1.84.637 1.6.636 1.264.637.868.637.436.636-.02.637-.538.637-1.12.636-1.8.637-2.5.637-3.23.637-3.843.636-4.206.637-4.177.637-3.716.636-2.743.637-1.44.637.12.636 1.632.637 2.925.637 3.778.637 4.155.636 4.067.637 3.557.637 2.782.636 1.84.637.848.637-.114.636-.964.637-1.63.637-2.036.636-2.087.637-1.798.637-1.178.637-.328.636.606.637 1.413.637 2 .636 2.297.637 2.28.637 2.033.636 1.658.637 1.237.637.86.637.553.636.33.637.184.637.097.636.047.637.022.637.01.636.005h.637" class="M"/><path d="M329.194 82.172h55.986" class="F O"/></g><use xlink:href="#E" x="319.226" class="F G K L P"/><path d="M357.54 96.345v-48.9" class="F G H O"/><path d="M355.47 49c.777-.13 1.942-1.554 2.072-1.943.13.39 1.295 1.813 2.072 1.943" class="F G K L P"/><text class="B C D"><tspan y="118.133" x="327.013">z</tspan></text><text class="C E J"><tspan y="119.926" x="332.45">k</tspan></text><text class="B C T"><tspan y="118.133" x="340.891">∼</tspan></text><text class="B C D"><tspan y="118.133" x="353.51">p</tspan></text><text class="C E J"><tspan y="119.926" x="359.385">k</tspan></text><text class="B I"><tspan y="118.133" x="364.505">(</tspan></text><text class="B C D"><tspan y="118.133" x="369.058">z</tspan></text><text class="C E J"><tspan y="119.926" x="374.495">k</tspan></text><text class="B I"><tspan y="118.133" x="379.615">)</tspan></text><defs ><path id="B" d="M47.324 19.194c0-6.053-4.906-10.959-10.959-10.959S25.406 13.14 25.406 19.194s4.906 10.959 10.959 10.959 10.959-4.906 10.959-10.959zm-10.959 0"/><path id="C" d="M127.13 19.194a10.96 10.96 0 0 0-10.959-10.959 10.96 10.96 0 0 0-10.959 10.959 10.96 10.96 0 0 0 10.96 10.959 10.96 10.96 0 0 0 10.958-10.959zm-10.96 0"/><path id="D" d="M366.553 19.194c0-6.053-4.906-10.959-10.96-10.959-6.052 0-10.958 4.906-10.958 10.959s4.906 10.959 10.959 10.959 10.959-4.906 10.959-10.959zm-10.96 0"/><path id="E" d="M64.4 80.1c.13.777 1.554 1.943 1.943 2.072-.39.13-1.813 1.295-1.943 2.072"/><path id="F" d="M231.945 70.833c0-18.786-15.23-34.016-34.016-34.016s-34.016 15.23-34.016 34.016 15.23 34.017 34.016 34.017 34.016-15.23 34.016-34.017zm-34.016 0"/></defs></svg>