<?xml version="1.0" encoding="UTF-8" standalone="no"?><!DOCTYPE svg PUBLIC "-//W3C//DTD SVG 1.1//EN" "http://www.w3.org/Graphics/SVG/1.1/DTD/svg11.dtd"><svg width="100%" height="100%" viewBox="0 0 755 231" version="1.1" xmlns="http://www.w3.org/2000/svg" xmlns:xlink="http://www.w3.org/1999/xlink" xml:space="preserve" xmlns:serif="http://www.serif.com/" style="fill-rule:evenodd;clip-rule:evenodd;stroke-linecap:round;stroke-linejoin:round;stroke-miterlimit:1.5;"><g><path d="M11.186,145.434l0,-1.671l108.52,0l0,-1.551l2.386,2.386l-2.386,2.387l0,-1.551l-108.52,0Z"/><path d="M66.122,157.853l-1.67,0l0,-66.321l-1.551,0l2.386,-2.387l2.386,2.387l-1.551,0l0,66.321Z"/><path d="M16.367,139.427c3.885,0 21.075,-0.219 29.958,-15.928c7.267,-12.85 7.495,-20.608 18.962,-20.791c12.811,-0.204 10.329,9.527 19.345,20.791c9.184,11.474 17.534,16.821 30.908,16.828" style="fill:none;stroke:#f00;stroke-width:3px;"/><ellipse cx="65.287" cy="134.601" rx="63.787" ry="61.302" style="fill:none;stroke:#000;stroke-width:3px;stroke-dasharray:6,9,0,0;"/></g><g><path d="M419.52,145.434l0,-1.671l108.52,0l0,-1.551l2.386,2.386l-2.386,2.387l0,-1.551l-108.52,0Z"/><path d="M474.456,157.853l-1.67,0l0,-66.321l-1.551,0l2.386,-2.387l2.386,2.387l-1.551,0l0,66.321Z"/><path d="M424.7,139.427c3.886,0 10.308,1.279 15.684,-15.948c5.787,-18.547 4.49,14.057 16.792,8.206c6.656,-3.165 8.472,-28.85 16.445,-28.977c12.81,-0.204 10.328,9.527 19.345,20.791c9.184,11.474 17.533,16.821 30.908,16.828" style="fill:none;stroke:#f00;stroke-width:3px;"/><ellipse cx="473.621" cy="134.601" rx="63.787" ry="61.302" style="fill:none;stroke:#000;stroke-width:3px;stroke-dasharray:6,9,0,0;"/></g><g><path d="M613.319,145.434l0,-1.671l108.52,0l0,-1.551l2.386,2.386l-2.386,2.387l0,-1.551l-108.52,0Z"/><path d="M668.255,157.853l-1.67,0l0,-66.321l-1.551,0l2.386,-2.387l2.386,2.387l-1.551,0l0,66.321Z"/><path d="M618.499,139.427c3.886,0 10.308,1.279 15.684,-15.948c5.788,-18.547 4.49,14.057 16.792,8.206c3.266,-1.553 6.609,9.633 8.844,2.916c2.319,-6.972 3.541,-31.828 7.601,-31.893c6.355,-0.101 7.437,33.856 9.536,37.619c2.132,3.823 5.265,-22.504 9.809,-16.828c3.776,4.718 9.379,-23.495 13.281,-20.794c5.587,3.867 9.752,37.618 17.627,37.622" style="fill:none;stroke:#f00;stroke-width:3px;"/><ellipse cx="667.42" cy="134.601" rx="63.787" ry="61.302" style="fill:none;stroke:#000;stroke-width:3px;stroke-dasharray:6,9,0,0;"/></g><g><ellipse cx="66.772" cy="32.391" rx="21.147" ry="21.356" style="fill:#ebebeb;stroke:#000cff;stroke-width:2.25px;"/><g transform="matrix(0.656234,0,0,0.662728,-24.6034,-62.5536)"><text x="120.283px" y="147.248px" style="font-family:'Arial-ItalicMT', 'Arial', sans-serif;font-style:italic;font-size:44.653px;">z</text><text x="142.609px" y="162.118px" style="font-family:'Arial-ItalicMT', 'Arial', sans-serif;font-style:italic;font-size:26.033px;">0</text></g></g><g><ellipse cx="345.225" cy="32.286" rx="21.147" ry="21.356" style="fill:#ebebeb;"/><g transform="matrix(0.656234,0,0,0.662728,250.099,-62.6589)"><text x="120.283px" y="147.248px" style="font-family:'Arial-ItalicMT', 'Arial', sans-serif;font-style:italic;font-size:44.653px;">z</text><text x="142.609px" y="162.118px" style="font-family:'Arial-ItalicMT', 'Arial', sans-serif;font-style:italic;font-size:26.033px;">i-1</text></g></g><g><ellipse cx="195.168" cy="32.391" rx="21.147" ry="21.356" style="fill:#ebebeb;"/><g transform="matrix(0.656234,0,0,0.662728,103.793,-62.5536)"><text x="120.283px" y="147.248px" style="font-family:'Arial-ItalicMT', 'Arial', sans-serif;font-style:italic;font-size:44.653px;">z</text><text x="142.609px" y="162.118px" style="font-family:'Arial-ItalicMT', 'Arial', sans-serif;font-style:italic;font-size:26.033px;">1</text></g></g><g><ellipse cx="473.621" cy="32.286" rx="21.147" ry="21.356" style="fill:#ebebeb;"/><g transform="matrix(0.656234,0,0,0.662728,382.245,-62.6589)"><text x="120.283px" y="147.248px" style="font-family:'Arial-ItalicMT', 'Arial', sans-serif;font-style:italic;font-size:44.653px;">z</text><text x="142.609px" y="162.118px" style="font-family:'Arial-ItalicMT', 'Arial', sans-serif;font-style:italic;font-size:26.033px;">i</text></g></g><g><ellipse cx="667.42" cy="32.181" rx="21.147" ry="21.356" style="fill:#ebebeb;stroke:#0c9a00;stroke-width:2.25px;"/><g transform="matrix(0.656234,0,0,0.662728,576.044,-62.7642)"><text x="120.283px" y="147.248px" style="font-family:'Arial-ItalicMT', 'Arial', sans-serif;font-style:italic;font-size:44.653px;">z</text><text x="142.609px" y="162.118px" style="font-family:'Arial-ItalicMT', 'Arial', sans-serif;font-style:italic;font-size:26.033px;">k</text></g></g><text x="699.52px" y="45.472px" style="font-family:'Arial-ItalicMT', 'Arial', sans-serif;font-style:italic;font-size:32.67px;">=<tspan x="720.559px 731.596px " y="45.472px 45.472px "> x</tspan></text><path d="M96.479,36.129l0,-7.475l60.234,0l0,-6.941l10.678,10.678l-10.678,10.679l0,-6.941l-60.234,0Z" style="fill:#ebebeb;"/><path d="M374.932,36.024l0,-7.475l60.234,0l0,-6.941l10.678,10.678l-10.678,10.678l0,-6.94l-60.234,0Z" style="fill:#ebebeb;"/><text x="252.307px" y="34.058px" style="font-family:'ArialMT', 'Arial', sans-serif;font-size:39.612px;">.<tspan x="263.204px 274.102px " y="34.058px 34.058px ">..</tspan></text><text x="592.224px" y="34.163px" style="font-family:'ArialMT', 'Arial', sans-serif;font-size:39.612px;">.<tspan x="603.122px 614.02px " y="34.163px 34.163px ">..</tspan></text><g transform="matrix(0.474342,0,0,0.474342,29.1788,-31.5283)"><text x="159.829px" y="98.18px" style="font-family:'Arial-ItalicMT', 'Arial', sans-serif;font-style:italic;font-size:43.56px;">f</text><text x="174.545px" y="112.686px" style="font-family:'Arial-ItalicMT', 'Arial', sans-serif;font-style:italic;font-size:25.396px;">1</text><text x="190.193px" y="98.18px" style="font-family:'Arial-ItalicMT', 'Arial', sans-serif;font-style:italic;font-size:43.56px;">(<tspan x="207.312px " y="98.18px ">z</tspan></text><text x="231.706px" y="112.686px" style="font-family:'Arial-ItalicMT', 'Arial', sans-serif;font-style:italic;font-size:25.396px;">0</text><text x="247.353px" y="98.18px" style="font-family:'Arial-ItalicMT', 'Arial', sans-serif;font-style:italic;font-size:43.56px;">)</text></g><g transform="matrix(0.474342,0,0,0.474342,309.835,-31.5283)"><text x="159.829px" y="98.18px" style="font-family:'Arial-ItalicMT', 'Arial', sans-serif;font-style:italic;font-size:43.56px;">f</text><text x="174.545px" y="112.686px" style="font-family:'Arial-ItalicMT', 'Arial', sans-serif;font-style:italic;font-size:25.396px;">i</text><text x="181.711px" y="98.18px" style="font-family:'Arial-ItalicMT', 'Arial', sans-serif;font-style:italic;font-size:43.56px;">(<tspan x="198.83px " y="98.18px ">z</tspan></text><text x="223.224px" y="112.686px" style="font-family:'Arial-ItalicMT', 'Arial', sans-serif;font-style:italic;font-size:25.396px;">i<tspan x="230.39px 240.371px " y="112.686px 112.686px ">-1</tspan></text><text x="256.018px" y="98.18px" style="font-family:'Arial-ItalicMT', 'Arial', sans-serif;font-style:italic;font-size:43.56px;">)</text></g><path d="M502.432,36.024l0,-7.475l60.234,0l0,-6.941l10.678,10.678l-10.678,10.678l0,-6.94l-60.234,0Z" style="fill:#ebebeb;"/><g transform="matrix(0.474342,0,0,0.474342,437.335,-31.5283)"><text x="159.829px" y="98.18px" style="font-family:'Arial-ItalicMT', 'Arial', sans-serif;font-style:italic;font-size:43.56px;">f</text><text x="174.545px" y="112.686px" style="font-family:'Arial-ItalicMT', 'Arial', sans-serif;font-style:italic;font-size:25.396px;">i<tspan x="181.711px 198.065px " y="112.686px 112.686px ">+1</tspan></text><text x="213.713px" y="98.18px" style="font-family:'Arial-ItalicMT', 'Arial', sans-serif;font-style:italic;font-size:43.56px;">(<tspan x="230.832px " y="98.18px ">z</tspan></text><text x="255.226px" y="112.686px" style="font-family:'Arial-ItalicMT', 'Arial', sans-serif;font-style:italic;font-size:25.396px;">i</text><text x="262.392px" y="98.18px" style="font-family:'Arial-ItalicMT', 'Arial', sans-serif;font-style:italic;font-size:43.56px;">)</text></g><g transform="matrix(0.474342,0,0,0.474342,-32.0166,176.937)"><text x="159.829px" y="98.18px" style="font-family:'Arial-ItalicMT', 'Arial', sans-serif;font-style:italic;font-size:43.56px;">z</text><text x="184.223px" y="112.686px" style="font-family:'Arial-ItalicMT', 'Arial', sans-serif;font-style:italic;font-size:25.396px;">0</text><text x="199.87px" y="98.18px" style="font-family:'Arial-ItalicMT', 'Arial', sans-serif;font-style:italic;font-size:43.56px;">~<tspan x="227.922px " y="98.18px ">p</tspan></text><text x="254.762px" y="112.686px" style="font-family:'Arial-ItalicMT', 'Arial', sans-serif;font-style:italic;font-size:25.396px;">0</text><text x="270.41px" y="98.18px" style="font-family:'Arial-ItalicMT', 'Arial', sans-serif;font-style:italic;font-size:43.56px;">(<tspan x="287.529px " y="98.18px ">z</tspan></text><text x="311.923px" y="112.686px" style="font-family:'Arial-ItalicMT', 'Arial', sans-serif;font-style:italic;font-size:25.396px;">0</text><text x="327.57px" y="98.18px" style="font-family:'Arial-ItalicMT', 'Arial', sans-serif;font-style:italic;font-size:43.56px;">)</text></g><g transform="matrix(0.474342,0,0,0.474342,359.827,176.937)"><text x="159.829px" y="98.18px" style="font-family:'Arial-ItalicMT', 'Arial', sans-serif;font-style:italic;font-size:43.56px;">z</text><text x="184.223px" y="112.686px" style="font-family:'Arial-ItalicMT', 'Arial', sans-serif;font-style:italic;font-size:25.396px;">i</text><text x="191.389px" y="98.18px" style="font-family:'Arial-ItalicMT', 'Arial', sans-serif;font-style:italic;font-size:43.56px;">~<tspan x="219.441px " y="98.18px ">p</tspan></text><text x="246.28px" y="112.686px" style="font-family:'Arial-ItalicMT', 'Arial', sans-serif;font-style:italic;font-size:25.396px;">i</text><text x="253.446px" y="98.18px" style="font-family:'Arial-ItalicMT', 'Arial', sans-serif;font-style:italic;font-size:43.56px;">(<tspan x="270.566px " y="98.18px ">z</tspan></text><text x="294.959px" y="112.686px" style="font-family:'Arial-ItalicMT', 'Arial', sans-serif;font-style:italic;font-size:25.396px;">i</text><text x="302.125px" y="98.18px" style="font-family:'Arial-ItalicMT', 'Arial', sans-serif;font-style:italic;font-size:43.56px;">)</text></g><g transform="matrix(0.474342,0,0,0.474342,552.96,176.937)"><text x="159.829px" y="98.18px" style="font-family:'Arial-ItalicMT', 'Arial', sans-serif;font-style:italic;font-size:43.56px;">z</text><text x="184.223px" y="112.686px" style="font-family:'Arial-ItalicMT', 'Arial', sans-serif;font-style:italic;font-size:25.396px;">k</text><text x="198.444px" y="98.18px" style="font-family:'Arial-ItalicMT', 'Arial', sans-serif;font-style:italic;font-size:43.56px;">~<tspan x="226.496px " y="98.18px ">p</tspan></text><text x="253.336px" y="112.686px" style="font-family:'Arial-ItalicMT', 'Arial', sans-serif;font-style:italic;font-size:25.396px;">k</text><text x="267.557px" y="98.18px" style="font-family:'Arial-ItalicMT', 'Arial', sans-serif;font-style:italic;font-size:43.56px;">(<tspan x="284.677px " y="98.18px ">z</tspan></text><text x="309.071px" y="112.686px" style="font-family:'Arial-ItalicMT', 'Arial', sans-serif;font-style:italic;font-size:25.396px;">k</text><text x="323.292px" y="98.18px" style="font-family:'Arial-ItalicMT', 'Arial', sans-serif;font-style:italic;font-size:43.56px;">)</text></g><g><path d="M11.186,145.434l0,-1.671l108.52,0l0,-1.551l2.386,2.386l-2.386,2.387l0,-1.551l-108.52,0Z"/><path d="M66.122,157.853l-1.67,0l0,-66.321l-1.551,0l2.386,-2.387l2.386,2.387l-1.551,0l0,66.321Z"/><path d="M16.367,139.427c3.885,0 21.075,-0.219 29.958,-15.928c7.267,-12.85 7.495,-20.608 18.962,-20.791c12.811,-0.204 10.329,9.527 19.345,20.791c9.184,11.474 17.534,16.821 30.908,16.828" style="fill:none;stroke:#f00;stroke-width:3px;"/><ellipse cx="65.287" cy="134.601" rx="63.787" ry="61.302" style="fill:none;stroke:#000;stroke-width:3px;stroke-dasharray:6,9,0,0;"/></g><g><path d="M419.52,145.434l0,-1.671l108.52,0l0,-1.551l2.386,2.386l-2.386,2.387l0,-1.551l-108.52,0Z"/><path d="M474.456,157.853l-1.67,0l0,-66.321l-1.551,0l2.386,-2.387l2.386,2.387l-1.551,0l0,66.321Z"/><path d="M424.7,139.427c3.886,0 10.308,1.279 15.684,-15.948c5.787,-18.547 4.49,14.057 16.792,8.206c6.656,-3.165 8.472,-28.85 16.445,-28.977c12.81,-0.204 10.328,9.527 19.345,20.791c9.184,11.474 17.533,16.821 30.908,16.828" style="fill:none;stroke:#f00;stroke-width:3px;"/><ellipse cx="473.621" cy="134.601" rx="63.787" ry="61.302" style="fill:none;stroke:#000;stroke-width:3px;stroke-dasharray:6,9,0,0;"/></g><g><path d="M613.319,145.434l0,-1.671l108.52,0l0,-1.551l2.386,2.386l-2.386,2.387l0,-1.551l-108.52,0Z"/><path d="M668.255,157.853l-1.67,0l0,-66.321l-1.551,0l2.386,-2.387l2.386,2.387l-1.551,0l0,66.321Z"/><path d="M618.499,139.427c3.886,0 10.308,1.279 15.684,-15.948c5.788,-18.547 4.49,14.057 16.792,8.206c3.266,-1.553 6.609,9.633 8.844,2.916c2.319,-6.972 3.541,-31.828 7.601,-31.893c6.355,-0.101 7.437,33.856 9.536,37.619c2.132,3.823 5.265,-22.504 9.809,-16.828c3.776,4.718 9.379,-23.495 13.281,-20.794c5.587,3.867 9.752,37.618 17.627,37.622" style="fill:none;stroke:#f00;stroke-width:3px;"/><ellipse cx="667.42" cy="134.601" rx="63.787" ry="61.302" style="fill:none;stroke:#000;stroke-width:3px;stroke-dasharray:6,9,0,0;"/></g><g><ellipse cx="66.772" cy="32.391" rx="21.147" ry="21.356" style="fill:#ebebeb;stroke:#000cff;stroke-width:2.25px;"/><g transform="matrix(0.656234,0,0,0.662728,-24.6034,-62.5536)"><text x="120.283px" y="147.248px" style="font-family:'Arial-ItalicMT', 'Arial', sans-serif;font-style:italic;font-size:44.653px;">z</text><text x="142.609px" y="162.118px" style="font-family:'Arial-ItalicMT', 'Arial', sans-serif;font-style:italic;font-size:26.033px;">0</text></g></g><g><ellipse cx="345.225" cy="32.286" rx="21.147" ry="21.356" style="fill:#ebebeb;"/><g transform="matrix(0.656234,0,0,0.662728,250.099,-62.6589)"><text x="120.283px" y="147.248px" style="font-family:'Arial-ItalicMT', 'Arial', sans-serif;font-style:italic;font-size:44.653px;">z</text><text x="142.609px" y="162.118px" style="font-family:'Arial-ItalicMT', 'Arial', sans-serif;font-style:italic;font-size:26.033px;">i-1</text></g></g><g><ellipse cx="195.168" cy="32.391" rx="21.147" ry="21.356" style="fill:#ebebeb;"/><g transform="matrix(0.656234,0,0,0.662728,103.793,-62.5536)"><text x="120.283px" y="147.248px" style="font-family:'Arial-ItalicMT', 'Arial', sans-serif;font-style:italic;font-size:44.653px;">z</text><text x="142.609px" y="162.118px" style="font-family:'Arial-ItalicMT', 'Arial', sans-serif;font-style:italic;font-size:26.033px;">1</text></g></g><g><ellipse cx="473.621" cy="32.286" rx="21.147" ry="21.356" style="fill:#ebebeb;"/><g transform="matrix(0.656234,0,0,0.662728,382.245,-62.6589)"><text x="120.283px" y="147.248px" style="font-family:'Arial-ItalicMT', 'Arial', sans-serif;font-style:italic;font-size:44.653px;">z</text><text x="142.609px" y="162.118px" style="font-family:'Arial-ItalicMT', 'Arial', sans-serif;font-style:italic;font-size:26.033px;">i</text></g></g><g><ellipse cx="667.42" cy="32.181" rx="21.147" ry="21.356" style="fill:#ebebeb;stroke:#0c9a00;stroke-width:2.25px;"/><g transform="matrix(0.656234,0,0,0.662728,576.044,-62.7642)"><text x="120.283px" y="147.248px" style="font-family:'Arial-ItalicMT', 'Arial', sans-serif;font-style:italic;font-size:44.653px;">z</text><text x="142.609px" y="162.118px" style="font-family:'Arial-ItalicMT', 'Arial', sans-serif;font-style:italic;font-size:26.033px;">k</text></g></g><text x="699.52px" y="45.472px" style="font-family:'Arial-ItalicMT', 'Arial', sans-serif;font-style:italic;font-size:32.67px;">=<tspan x="720.559px 731.596px " y="45.472px 45.472px "> x</tspan></text><path d="M96.479,36.129l0,-7.475l60.234,0l0,-6.941l10.678,10.678l-10.678,10.679l0,-6.941l-60.234,0Z" style="fill:#ebebeb;"/><path d="M374.932,36.024l0,-7.475l60.234,0l0,-6.941l10.678,10.678l-10.678,10.678l0,-6.94l-60.234,0Z" style="fill:#ebebeb;"/><text x="252.307px" y="34.058px" style="font-family:'ArialMT', 'Arial', sans-serif;font-size:39.612px;">.<tspan x="263.204px 274.102px " y="34.058px 34.058px ">..</tspan></text><text x="592.224px" y="34.163px" style="font-family:'ArialMT', 'Arial', sans-serif;font-size:39.612px;">.<tspan x="603.122px 614.02px " y="34.163px 34.163px ">..</tspan></text><g transform="matrix(0.474342,0,0,0.474342,29.1788,-31.5283)"><text x="159.829px" y="98.18px" style="font-family:'Arial-ItalicMT', 'Arial', sans-serif;font-style:italic;font-size:43.56px;">f</text><text x="174.545px" y="112.686px" style="font-family:'Arial-ItalicMT', 'Arial', sans-serif;font-style:italic;font-size:25.396px;">1</text><text x="190.193px" y="98.18px" style="font-family:'Arial-ItalicMT', 'Arial', sans-serif;font-style:italic;font-size:43.56px;">(<tspan x="207.312px " y="98.18px ">z</tspan></text><text x="231.706px" y="112.686px" style="font-family:'Arial-ItalicMT', 'Arial', sans-serif;font-style:italic;font-size:25.396px;">0</text><text x="247.353px" y="98.18px" style="font-family:'Arial-ItalicMT', 'Arial', sans-serif;font-style:italic;font-size:43.56px;">)</text></g><g transform="matrix(0.474342,0,0,0.474342,309.835,-31.5283)"><text x="159.829px" y="98.18px" style="font-family:'Arial-ItalicMT', 'Arial', sans-serif;font-style:italic;font-size:43.56px;">f</text><text x="174.545px" y="112.686px" style="font-family:'Arial-ItalicMT', 'Arial', sans-serif;font-style:italic;font-size:25.396px;">i</text><text x="181.711px" y="98.18px" style="font-family:'Arial-ItalicMT', 'Arial', sans-serif;font-style:italic;font-size:43.56px;">(<tspan x="198.83px " y="98.18px ">z</tspan></text><text x="223.224px" y="112.686px" style="font-family:'Arial-ItalicMT', 'Arial', sans-serif;font-style:italic;font-size:25.396px;">i<tspan x="230.39px 240.371px " y="112.686px 112.686px ">-1</tspan></text><text x="256.018px" y="98.18px" style="font-family:'Arial-ItalicMT', 'Arial', sans-serif;font-style:italic;font-size:43.56px;">)</text></g><path d="M502.432,36.024l0,-7.475l60.234,0l0,-6.941l10.678,10.678l-10.678,10.678l0,-6.94l-60.234,0Z" style="fill:#ebebeb;"/><g transform="matrix(0.474342,0,0,0.474342,437.335,-31.5283)"><text x="159.829px" y="98.18px" style="font-family:'Arial-ItalicMT', 'Arial', sans-serif;font-style:italic;font-size:43.56px;">f</text><text x="174.545px" y="112.686px" style="font-family:'Arial-ItalicMT', 'Arial', sans-serif;font-style:italic;font-size:25.396px;">i<tspan x="181.711px 198.065px " y="112.686px 112.686px ">+1</tspan></text><text x="213.713px" y="98.18px" style="font-family:'Arial-ItalicMT', 'Arial', sans-serif;font-style:italic;font-size:43.56px;">(<tspan x="230.832px " y="98.18px ">z</tspan></text><text x="255.226px" y="112.686px" style="font-family:'Arial-ItalicMT', 'Arial', sans-serif;font-style:italic;font-size:25.396px;">i</text><text x="262.392px" y="98.18px" style="font-family:'Arial-ItalicMT', 'Arial', sans-serif;font-style:italic;font-size:43.56px;">)</text></g><g transform="matrix(0.474342,0,0,0.474342,-32.0166,176.937)"><text x="159.829px" y="98.18px" style="font-family:'Arial-ItalicMT', 'Arial', sans-serif;font-style:italic;font-size:43.56px;">z</text><text x="184.223px" y="112.686px" style="font-family:'Arial-ItalicMT', 'Arial', sans-serif;font-style:italic;font-size:25.396px;">0</text><text x="199.87px" y="98.18px" style="font-family:'Arial-ItalicMT', 'Arial', sans-serif;font-style:italic;font-size:43.56px;">~<tspan x="227.922px " y="98.18px ">p</tspan></text><text x="254.762px" y="112.686px" style="font-family:'Arial-ItalicMT', 'Arial', sans-serif;font-style:italic;font-size:25.396px;">0</text><text x="270.41px" y="98.18px" style="font-family:'Arial-ItalicMT', 'Arial', sans-serif;font-style:italic;font-size:43.56px;">(<tspan x="287.529px " y="98.18px ">z</tspan></text><text x="311.923px" y="112.686px" style="font-family:'Arial-ItalicMT', 'Arial', sans-serif;font-style:italic;font-size:25.396px;">0</text><text x="327.57px" y="98.18px" style="font-family:'Arial-ItalicMT', 'Arial', sans-serif;font-style:italic;font-size:43.56px;">)</text></g><g transform="matrix(0.474342,0,0,0.474342,359.827,176.937)"><text x="159.829px" y="98.18px" style="font-family:'Arial-ItalicMT', 'Arial', sans-serif;font-style:italic;font-size:43.56px;">z</text><text x="184.223px" y="112.686px" style="font-family:'Arial-ItalicMT', 'Arial', sans-serif;font-style:italic;font-size:25.396px;">i</text><text x="191.389px" y="98.18px" style="font-family:'Arial-ItalicMT', 'Arial', sans-serif;font-style:italic;font-size:43.56px;">~<tspan x="219.441px " y="98.18px ">p</tspan></text><text x="246.28px" y="112.686px" style="font-family:'Arial-ItalicMT', 'Arial', sans-serif;font-style:italic;font-size:25.396px;">i</text><text x="253.446px" y="98.18px" style="font-family:'Arial-ItalicMT', 'Arial', sans-serif;font-style:italic;font-size:43.56px;">(<tspan x="270.566px " y="98.18px ">z</tspan></text><text x="294.959px" y="112.686px" style="font-family:'Arial-ItalicMT', 'Arial', sans-serif;font-style:italic;font-size:25.396px;">i</text><text x="302.125px" y="98.18px" style="font-family:'Arial-ItalicMT', 'Arial', sans-serif;font-style:italic;font-size:43.56px;">)</text></g><g transform="matrix(0.474342,0,0,0.474342,552.96,176.937)"><text x="159.829px" y="98.18px" style="font-family:'Arial-ItalicMT', 'Arial', sans-serif;font-style:italic;font-size:43.56px;">z</text><text x="184.223px" y="112.686px" style="font-family:'Arial-ItalicMT', 'Arial', sans-serif;font-style:italic;font-size:25.396px;">k</text><text x="198.444px" y="98.18px" style="font-family:'Arial-ItalicMT', 'Arial', sans-serif;font-style:italic;font-size:43.56px;">~<tspan x="226.496px " y="98.18px ">p</tspan></text><text x="253.336px" y="112.686px" style="font-family:'Arial-ItalicMT', 'Arial', sans-serif;font-style:italic;font-size:25.396px;">k</text><text x="267.557px" y="98.18px" style="font-family:'Arial-ItalicMT', 'Arial', sans-serif;font-style:italic;font-size:43.56px;">(<tspan x="284.677px " y="98.18px ">z</tspan></text><text x="309.071px" y="112.686px" style="font-family:'Arial-ItalicMT', 'Arial', sans-serif;font-style:italic;font-size:25.396px;">k</text><text x="323.292px" y="98.18px" style="font-family:'Arial-ItalicMT', 'Arial', sans-serif;font-style:italic;font-size:43.56px;">)</text></g></svg>