<svg xmlns="http://www.w3.org/2000/svg" viewBox="0 0 451 260.81"><style>.J{stroke:#dce0df}.K{stroke-linejoin:round}</style><g fill="#5e97f6" class="J K"><path d="M50.5 130.4l-25 43.3h50l25-43.3h-50zM.5 217l25-43.3h50l-25 43.3H.5z"/><path d="M125.5 173.7h-50l-25 43.3h50l25-43.3z"/><path d="M175.5 173.7h-50l-25 43.3h50l25-43.3zM150.5 130.4l-25 43.3h50l25-43.3h-50zM175.5 87.1l-25 43.3h50l25-43.3h-50z"/><path d="M200.5 43.8l-25 43.3h50l25-43.3h-50zM225.5.5l-25 43.3h50l25-43.3h-50z"/></g><g fill="#2a56c6" class="J K"><path d="M.5 217l25 43.3h50l-25-43.3H.5z"/><path d="M125.5 260.3h-50l-25-43.3h50l25 43.3z"/><path d="M175.5 260.3h-50l-25-43.3h50l25 43.3z"/></g><g fill="#00796b" class="J K"><path d="M200.5 217l-25-43.3-25 43.3 25 43.3 25-43.3zm50-86.6l-25-43.3-25 43.3h50zM250.5 43.8l-25 43.3 25 43.3 25-43.3-25-43.3z"/></g><path d="M125.5 173.7l-25-43.3-25 43.3h50z" fill="#3367d6" class="J K"/><g fill="#26a69a" class="J K"><path d="M250.5 130.4h-50l-25 43.3h50l25-43.3z"/><path d="M300.5 130.4h-50l-25 43.3h50l25-43.3z"/></g><g fill="#9c27b0" class="J K"><path d="M350.5 43.8L325.5.5l-25 43.3 25 43.3 25-43.3zM375.5 87.1l-25-43.3-25 43.3 25 43.3 25-43.3zM400.5 130.4l-25-43.3-25 43.3 25 43.3 25-43.3z"/><path d="M425.5 173.7l-25-43.3-25 43.3 25 43.3 25-43.3zM450.5 217l-25-43.3-25 43.3 25 43.3 25-43.3zM425.5.5l-25 43.3 25 43.3 25-43.3-25-43.3z"/><path d="M375.5 87.1l25-43.3 25 43.3-25 43.3-25-43.3zm-25 43.3l-25 43.3 25 43.3 25-43.3-25-43.3z"/><path d="M325.5 260.3l-25-43.3 25-43.3 25 43.3-25 43.3z"/></g><path d="M275.5 260.3l-25-43.3h50l25 43.3h-50z" fill="#6a1b9a" class="J K"/><g fill="#00695c" class="J K"><path d="M225.5 173.7h-50l25 43.3h50l-25-43.3z"/><path d="M275.5 173.7h-50l25 43.3 25-43.3zm0-86.6l25 43.3h50l-25-43.3h-50z"/><path d="M300.5 43.8h-50l25 43.3h50l-25-43.3zm125 216.5l-25-43.3h-50l25 43.3h50zM375.5 173.7l-25 43.3h50l-25-43.3z"/></g><g fill="#ea80fc" class="J K"><path d="M325.5.5h-50l-25 43.3h50l25-43.3zm0 173.2h-50l-25 43.3h50l25-43.3zM350.5 130.4h-50l-25 43.3h50l25-43.3zM425.5.5h-50l-25 43.3h50l25-43.3zM375.5 87.1l-25-43.3h50l-25 43.3z"/></g></svg>