<svg xmlns="http://www.w3.org/2000/svg" xmlns:xlink="http://www.w3.org/1999/xlink" viewBox="0 0 66 61" fill="#fff" fill-rule="evenodd" stroke="#000" stroke-linecap="round" stroke-linejoin="round"><use xlink:href="#A" x=".5" y=".5"/><symbol id="A" overflow="visible"><g stroke="none" fill-rule="nonzero"><path d="M14.518 59.33C6.493 59.321-.006 52.809 0 44.785s6.515-14.526 14.54-14.523a14.54 14.54 0 0 1 14.53 14.534c-.01 8.03-6.52 14.534-14.55 14.534z" fill="#ca3c32"/><path d="M49.45 59.33c-8.025-.01-14.524-6.52-14.518-14.545s6.515-14.526 14.54-14.523S64 36.77 64 44.795c-.01 8.03-6.52 14.534-14.55 14.534z" fill="#9259a3"/><path d="M31.992 29.069c-8.027 0-14.534-6.507-14.534-14.534S23.965 0 31.992 0s14.534 6.508 14.534 14.535a14.52 14.52 0 0 1-14.534 14.534z" fill="#399746"/></g></symbol></svg>