<svg xmlns="http://www.w3.org/2000/svg" xmlns:xlink="http://www.w3.org/1999/xlink" width="489.24" height="276.44" viewBox="0 0 366.93 207.33" xmlns:v="https://vecta.io/nano"><style><![CDATA[.B{stroke-width:.399}.C{stroke-width:.319}.D{stroke-linecap:round}.E{stroke-linejoin:round}.F{overflow:visible}.G{fill:none}.H{stroke:#000}.I{stroke-miterlimit:10}.J{stroke-width:.797}]]></style><defs><symbol id="A" class="F"><path d="M9.14-5.656c.25-.438.485-.797 1.126-.844.078-.016.187-.016.187-.203 0-.03-.047-.1-.125-.1l-.765.032c-.344 0-.704-.032-1.047-.032-.047 0-.188 0-.188.188 0 .1.094.125.156.125.235.016.594.094.594.4 0 .1-.062.188-.14.33L6.25-1.094 5.875-6.03c0-.203-.016-.453.703-.47.172 0 .266 0 .266-.203 0-.094-.1-.1-.14-.1l-1.22.032c-.234 0-.812-.032-1.046-.032-.063 0-.188 0-.188.204 0 .11.094.11.234.11.438 0 .516.063.532.25l.062.766-2.53 4.4-.375-5.047c0-.125 0-.343.765-.36.094 0 .204 0 .204-.203 0-.1-.125-.1-.14-.1l-1.22.032c-.36 0-.718-.032-1.047-.032-.062 0-.187 0-.187.188 0 .125.094.125.25.125.5 0 .515.094.53.375L1.78-.046c0 .188.016.266.157.266.11 0 .14-.063.234-.203L5.11-5.077l.36 5.03c.03.22.047.266.156.266.14 0 .203-.094.25-.188zm0 0"/></symbol><symbol id="B" class="F"><path d="M6.266-5.672c.484-.78.906-.812 1.265-.828.125-.016.14-.172.14-.188 0-.078-.062-.125-.14-.125l-.812.032c-.328 0-.672-.032-.985-.032-.062 0-.187 0-.187.188 0 .1.078.125.156.125.266.016.453.125.453.328 0 .156-.14.375-.14.375L2.953-.922l-.687-5.28c0-.172.234-.297.687-.297.14 0 .25 0 .25-.203 0-.078-.078-.1-.125-.1l-1.25.032H1.28c-.172 0-.36-.032-.53-.032-.078 0-.188 0-.188.188 0 .125.08.125.25.125.547 0 .563.094.594.344l.782 6.14c.03.204.078.235.203.235.156 0 .203-.047.28-.172zm0 0"/></symbol><symbol id="C" class="F"><path d="M3.328-3.016c.063-.25.297-1.17.985-1.17a1.01 1.01 0 0 1 .5.125.578.578 0 0 0-.47.546c0 .157.1.344.376.344a.546.546 0 0 0 .531-.578c0-.516-.578-.656-.922-.656-.578 0-.922.53-1.047.75a1.09 1.09 0 0 0-1.078-.75c-1.03 0-1.6 1.28-1.6 1.53 0 .1.1.1.126.1.078 0 .1-.032.125-.1.344-1.063 1-1.313 1.344-1.313.187 0 .53.094.53.672 0 .313-.17.97-.53 2.375-.157.6-.516 1.032-.954 1.032-.062 0-.28 0-.5-.125.25-.063.47-.266.47-.547 0-.266-.22-.344-.36-.344-.313 0-.547.25-.547.578 0 .453.484.656.922.656.672 0 1.03-.703 1.047-.75.125.36.484.75 1.078.75 1.03 0 1.594-1.28 1.594-1.53 0-.1-.08-.1-.1-.1-.094 0-.1.047-.14.1-.33 1.077-1 1.312-1.313 1.312-.4 0-.547-.313-.547-.657 0-.218.047-.437.156-.875zm0 0"/></symbol><symbol id="D" class="F"><path d="M.453 1.22c-.078.343-.1.406-.547.406-.1 0-.218 0-.218.188 0 .078.046.125.124.125l.83-.032 1 .032c.046 0 .17 0 .17-.204 0-.11-.093-.11-.234-.11-.5 0-.5-.063-.5-.156 0-.125.422-1.75.484-2 .125.297.407.64.922.64C3.64.11 4.89-1.344 4.89-2.812c0-.938-.58-1.594-1.33-1.594-.5 0-.984.36-1.312.75a.87.87 0 0 0-.89-.75c-.47 0-.657.4-.735.562-.188.344-.313.938-.313.97 0 .1.094.1.1.1.1 0 .1-.016.172-.235.172-.703.375-1.188.734-1.188.172 0 .313.08.313.454 0 .234-.032.343-.08.515zm1.75-4.328c.063-.266.344-.547.516-.704.36-.296.64-.374.812-.374.4 0 .64.343.64.937s-.327 1.734-.515 2.1C3.312-.438 2.844-.1 2.47-.1c-.656 0-.78-.828-.78-.9 0-.016 0-.03.03-.156zm0 0"/></symbol><symbol id="E" class="F"><path d="M2.03-.016c0-.656-.25-1.046-.64-1.046a.517.517 0 0 0-.532.53c0 .266.204.532.532.532a.58.58 0 0 0 .343-.125c.032-.03.047-.03.047-.03.016 0 .016 0 .016.14 0 .75-.344 1.344-.672 1.672-.1.1-.1.125-.1.157 0 .078.048.11.094.11.1 0 .922-.766.922-1.938zm0 0"/></symbol><symbol id="F" class="F"><path d="M9.234-6.047c.094-.36.1-.453.86-.453.22 0 .312 0 .312-.203 0-.1-.094-.1-.265-.1H8.828c-.265 0-.28 0-.4.188L4.796-.937l-.78-5.64c-.032-.234-.047-.234-.313-.234h-1.36c-.187 0-.296 0-.296.187 0 .125.094.125.28.125l.438.016c.156.03.218.046.218.17 0 .032-.015.063-.046.188L1.67-1.062c-.094.406-.266.718-1.078.75-.047 0-.172.015-.172.187C.42-.03.483 0 .56 0l1-.03L2.577 0c.047 0 .188 0 .188-.203 0-.1-.1-.1-.188-.1-.562 0-.672-.203-.672-.437 0-.063 0-.125.032-.234l1.36-5.422h.015l.86 6.172c.016.125.03.234.14.234s.172-.1.22-.172l4.03-6.312h.016L7.14-.78c-.094.4-.1.47-.907.47-.156 0-.265 0-.265.187 0 .125.1.125.14.125l1.235-.03 1.25.03c.062 0 .187 0 .187-.203 0-.1-.094-.1-.28-.1-.36 0-.64 0-.64-.17 0-.047 0-.063.046-.25zm0 0"/></symbol><symbol id="G" class="F"><path d="M2.328-4.438c0-.187 0-.187-.203-.187-.453.438-1.078.438-1.36.438v.25c.157 0 .626 0 1-.188v3.547c0 .234 0 .328-.687.328H.812V0l1.235-.03 1.25.03v-.25H3.03c-.703 0-.703-.094-.703-.328zm0 0"/></symbol><symbol id="H" class="F"><path d="M3.516-1.266H3.28c-.015.157-.094.563-.187.625-.047.047-.578.047-.688.047h-1.28l1.4-1.172c.516-.406 1-.843 1-1.5 0-.843-.734-1.36-1.624-1.36-.86 0-1.454.6-1.454 1.25 0 .344.297.4.376.4.156 0 .36-.124.36-.374 0-.125-.047-.375-.406-.375.218-.485.687-.64 1.015-.64.703 0 1.063.547 1.063 1.1 0 .61-.438 1.078-.656 1.328L.516-.266c-.08.063-.08.08-.08.266h2.876zm0 0"/></symbol><symbol id="I" class="F"><path d="M1.906-2.328c.547 0 .938.375.938 1.125 0 .86-.516 1.125-.906 1.125-.282 0-.907-.078-1.188-.5.328 0 .406-.235.406-.4 0-.22-.172-.376-.4-.376a.38.38 0 0 0-.391.407C.375-.28 1.094.14 1.938.14c.968 0 1.64-.657 1.64-1.344 0-.547-.437-1.094-1.203-1.25.72-.266.984-.78.984-1.22 0-.547-.625-.953-1.406-.953-.766 0-1.36.375-1.36.938 0 .234.157.36.36.36a.34.34 0 0 0 .36-.344c0-.203-.14-.36-.36-.375.25-.297.72-.375.985-.375.312 0 .75.156.75.75 0 .297-.094.625-.282.828-.22.266-.422.28-.765.313l-.22.015c-.015 0-.077.016-.077.094 0 .094.062.094.187.094zm0 0"/></symbol><symbol id="J" class="F"><path d="M2.9-3.516c.813-.265 1.39-.953 1.39-1.75 0-.812-.875-1.375-1.828-1.375-1 0-1.765.594-1.765 1.36a.48.48 0 0 0 .515.515c.297 0 .5-.218.5-.515 0-.485-.47-.485-.6-.485.298-.5.954-.625 1.313-.625.422 0 .97.22.97 1.1 0 .125-.03.703-.28 1.14-.297.485-.64.516-.9.516a3.29 3.29 0 0 1-.392.031c-.078.016-.14.03-.14.125 0 .1.062.1.234.1h.438c.812 0 1.187.67 1.187 1.656 0 1.36-.687 1.64-1.125 1.64S1.22-.234.875-.813c.344.047.656-.17.656-.546a.537.537 0 0 0-.547-.563.53.53 0 0 0-.562.578C.422-.437 1.344.22 2.437.22c1.22 0 2.126-.906 2.126-1.922 0-.813-.64-1.594-1.672-1.813zm0 0"/></symbol><symbol id="K" class="F"><path d="M2.938-6.375c0-.25 0-.266-.235-.266C2.078-6 1.203-6 .89-6v.313c.203 0 .78 0 1.296-.266V-.78c0 .36-.03.47-.92.47H.953V0c.344-.03 1.203-.03 1.6-.03l1.61.03v-.313H3.86c-.906 0-.92-.11-.92-.468zm0 0"/></symbol><symbol id="L" class="F"><path d="M1.266-.766l1.062-1.03c1.547-1.376 2.14-1.907 2.14-2.907 0-1.14-.9-1.938-2.11-1.938C1.234-6.64.5-5.72.5-4.828c0 .547.5.547.53.547.172 0 .516-.1.516-.532a.513.513 0 0 0-.531-.515c-.08 0-.094 0-.125.016.218-.657.765-1.016 1.343-1.016.907 0 1.33.812 1.33 1.625 0 .797-.485 1.578-1.047 2.203L.61-.375C.5-.265.5-.235.5 0h3.703l.266-1.734h-.235C4.172-1.438 4.1-1 4-.844c-.063.078-.72.078-.938.078zm0 0"/></symbol><symbol id="M" class="F"><path d="M2.5-6.922l-1.344 1.36.172.17L2.5-6.406 3.64-5.39l.172-.17zm0 0"/></symbol><symbol id="N" class="F"><path d="M3.297 2.4c0-.03 0-.046-.172-.218C1.89.922 1.562-.968 1.562-2.5c0-1.734.375-3.47 1.6-4.703.125-.125.125-.14.125-.172 0-.078-.03-.1-.094-.1-.1 0-1 .688-1.594 1.954C1.1-4.438.984-3.328.984-2.5c0 .78.1 1.984.657 3.125C2.25 1.844 3.094 2.5 3.203 2.5c.063 0 .094-.03.094-.1zm0 0"/></symbol><symbol id="O" class="F"><path d="M2.875-2.5c0-.766-.1-1.97-.656-3.1C1.625-6.827.766-7.483.672-7.483a.107.107 0 0 0-.11.109c0 .03 0 .047.188.234.984.985 1.547 2.563 1.547 4.64 0 1.72-.36 3.47-1.594 4.72-.14.125-.14.14-.14.172 0 .062.046.11.11.11.094 0 1-.688 1.578-1.953.516-1.094.625-2.203.625-3.047zm0 0"/></symbol><symbol id="P" class="F"><path d="M6.844-3.266c.156 0 .343 0 .343-.187 0-.203-.187-.203-.328-.203H.89c-.14 0-.33 0-.33.203 0 .187.188.187.33.187zm.015 1.938c.14 0 .33 0 .33-.203 0-.188-.188-.188-.344-.188H.9c-.14 0-.33 0-.33.188 0 .203.188.203.33.203zm0 0"/></symbol><symbol id="Q" class="F"><path d="M1.578-7.125c0-.172 0-.36-.187-.36-.204 0-.204.188-.204.36V2.14c0 .17 0 .36.204.36.187 0 .187-.188.187-.36zm0 0"/></symbol><symbol id="R" class="F"><path d="M5.5-3.578c0-1.094-.875-1.844-2.563-1.844-.67 0-2.078.063-2.078 1.078 0 .5.39.703.704.703.36 0 .703-.25.703-.703 0-.218-.08-.437-.282-.562.39-.1.688-.1.907-.1.812 0 1.312.454 1.312 1.438v.47c-1.9 0-3.797.53-3.797 1.86 0 1.078 1.4 1.328 2.22 1.328.906 0 1.5-.515 1.734-1.03 0 .437 0 .953 1.204.953h.625c.25 0 .343 0 .343-.266 0-.25-.1-.25-.28-.25C5.5-.53 5.5-.72 5.5-.984zM4.203-1.656c0 1.125-1.016 1.328-1.4 1.328-.594 0-1.08-.4-1.08-.938 0-1.093 1.297-1.453 2.47-1.515zm0 0"/></symbol><symbol id="S" class="F"><path d="M4.22-5.28v.515c.734 0 .828 0 .828.47v2.343c0 .906-.547 1.625-1.47 1.625-.906 0-.953-.297-.953-.953v-4.094L.5-5.28v.515c.75 0 .828 0 .828.47v2.827c0 1.188.797 1.547 2.078 1.547.28 0 1.172 0 1.688-.97h.015v.97L7.172 0v-.516c-.734 0-.828 0-.828-.468v-4.39zm0 0"/></symbol><symbol id="T" class="F"><path d="M2.516-4.797H4.25v-.516H2.516v-2.28h-.5c0 1.187-.58 2.374-1.766 2.405v.39h.97v3.328c0 1.266.984 1.547 1.843 1.547.876 0 1.407-.672 1.407-1.562v-.625h-.5v.61c0 .797-.36 1.14-.735 1.14-.718 0-.718-.796-.718-1.078zm0 0"/></symbol><symbol id="U" class="F"><path d="M6.328-2.625c0-1.6-1.094-2.797-2.97-2.797-1.953 0-2.984 1.25-2.984 2.797C.375-1.047 1.47.078 3.344.078c1.953 0 2.984-1.187 2.984-2.703zM3.36-.36c-1.546 0-1.546-1.39-1.546-2.375 0-.563 0-1.157.218-1.594.266-.484.797-.688 1.313-.688.687 0 1.1.313 1.312.657.25.42.25 1.046.25 1.625 0 .984 0 2.375-1.547 2.375zm0 0"/></symbol><symbol id="V" class="F"><path d="M5.406-2.64c.266 0 .344 0 .344-.297 0-.36-.078-1.266-.64-1.813-.5-.516-1.173-.672-1.86-.672-1.86 0-2.875 1.22-2.875 2.734C.375-1.016 1.61.08 3.406.08 5.22.078 5.75-1.188 5.75-1.406c0-.172-.188-.172-.25-.172-.188 0-.203.03-.28.187C4.906-.61 4.125-.36 3.547-.36c-1.735 0-1.735-1.6-1.735-2.282zm-3.593-.344c.015-.5.03-.954.28-1.39a1.32 1.32 0 0 1 1.157-.64c1.28 0 1.4 1.437 1.406 2.03zm0 0"/></symbol><symbol id="W" class="F"><path d="M6.344-3.656c0-1.14-.485-1.72-1.797-1.72-.86 0-1.6.422-2.016 1.313h-.015v-1.313L.5-5.28v.515c.75 0 .828 0 .828.47v3.78H.5V0c.28-.03 1.14-.03 1.47-.03L3.453 0v-.516h-.828v-2.546c0-1.282.953-1.922 1.72-1.922.453 0 .703.28.703 1.187v3.28H4.22V0c.28-.03 1.14-.03 1.468-.03L7.172 0v-.516h-.828zm0 0"/></symbol><symbol id="X" class="F"><path d="M5.594-1.406c0-.14-.125-.14-.25-.14-.188 0-.203.015-.266.155a1.48 1.48 0 0 1-1.5 1.032C1.89-.36 1.89-2.172 1.89-2.72c0-.703.015-2.265 1.578-2.265.078 0 .78.03.78.078 0 .015 0 .03-.03.047a.733.733 0 0 0-.188.515c0 .5.407.703.703.703.25 0 .704-.156.704-.718 0-.985-1.375-1.063-2.016-1.063-2.125 0-2.97 1.4-2.97 2.766 0 1.625 1.14 2.734 2.9 2.734 1.876 0 2.25-1.4 2.25-1.484zm0 0"/></symbol><symbol id="Y" class="F"><path d="M4.14-8.203v.515c.75 0 .83 0 .83.47v2.405a2.45 2.45 0 0 0-1.61-.562c-1.703 0-2.906 1.047-2.906 2.72C.453-.937 1.64.078 3.234.078a2.51 2.51 0 0 0 1.672-.625v.625L7.046 0v-.516c-.75 0-.827 0-.827-.468v-7.313zm.766 7c-.5.72-1.1.875-1.53.875-1.484 0-1.484-1.516-1.484-2.297 0-.563 0-1.172.265-1.625.36-.656 1.078-.734 1.344-.734.5 0 1.016.218 1.406.734zm0 0"/></symbol><symbol id="Z" class="F"><path d="M2.484-2.688c0-.4.08-2.296 1.485-2.296-.172.125-.25.328-.25.546 0 .5.4.704.687.704s.703-.204.703-.704c0-.61-.625-.937-1.203-.937-.937 0-1.344.828-1.515 1.328h-.016v-1.328L.422-5.28v.515c.734 0 .828 0 .828.47v3.78H.422V0c.266-.03 1.172-.03 1.5-.03l1.6.03v-.516h-1.05zm0 0"/></symbol><symbol id="a" class="F"><path d="M6.375-1.516L3.5-7.953c-.1-.25-.22-.25-.47-.25H.484v.515H1.75v6.813c0 .266 0 .28-.313.328a9.664 9.664 0 0 1-.671.031H.484V0c.282-.03 1.22-.03 1.547-.03L3.578 0v-.516h-.265c-.33 0-.344 0-.64-.03-.344-.048-.36-.063-.36-.33v-6.672h.016L5.578-.25c.063.125.14.25.344.25s.266-.125.328-.25l3.313-7.438h.015v7.172H8.313V0c.312-.03 1.562-.03 1.968-.03l1.97.03v-.516h-1.266v-7.17h1.266v-.516H9.703c-.25 0-.36 0-.47.25zm0 0"/></symbol><symbol id="b" class="F"><path d="M5.47-8.094c-.078-.22-.1-.265-.4-.265-.298 0-.33.046-.407.265L1.703-.797c-.078.188-.078.22-.406.25l-.6.03H.47V0c.3-.03 1.03-.03 1.374-.03L3.312 0v-.516c-.265 0-.718 0-1.046-.125l.046-.187.64-1.547h3.203l.75 1.86H5.78V0c.4-.03 1.547-.03 2-.03L9.688 0v-.516H8.546zm-.922 1.766l1.4 3.437h-2.78zm0 0"/></symbol><symbol id="c" class="F"><path d="M.453-8.203v.515H1.72v7.172H.453V0h5.03C7.78 0 9.547-1.47 9.547-4.03c0-2.703-1.813-4.172-4.063-4.172zm2.78 7.687v-7.17H5.03c1.047 0 1.875.406 2.313 1.03.36.485.578 1.08.578 2.6 0 1.406-.172 2.03-.594 2.594-.422.547-1.22.937-2.297.937zm0 0"/></symbol><symbol id="d" class="F"><path d="M8.438-3.234h-.5c-.25 1.78-.688 2.718-2.782 2.718h-1.86V-3.97H4c1.156 0 1.266.485 1.266 1.406h.5v-3.312h-.5c0 .9-.1 1.4-1.266 1.4h-.703v-3.14h1.86c1.843 0 2.234.78 2.405 2.313h.5l-.342-2.83H.453v.516H1.72v7.1H.453V0h7.47zm0 0"/></symbol><symbol id="e" class="F"><path d="M10.094-3.656c0-1.094-.47-1.72-1.813-1.72-1.203 0-1.765.813-1.953 1.188-.203-1.016-1.016-1.188-1.78-1.188-1.14 0-1.766.734-2.016 1.313h-.015v-1.313L.5-5.28v.515c.75 0 .828 0 .828.47v3.78H.5V0c.28-.03 1.14-.03 1.47-.03L3.453 0v-.516h-.828v-2.546c0-1.297.97-1.922 1.72-1.922.453 0 .718.265.718 1.187v3.28h-.828V0C4.5-.03 5.36-.03 5.704-.03L7.188 0v-.516h-.83v-2.546c0-1.297.97-1.922 1.72-1.922.437 0 .702.265.702 1.187v3.28h-.828V0c.28-.03 1.14-.03 1.484-.03l1.47.03v-.516h-.813zm0 0"/></symbol><symbol id="f" class="F"><path d="M4.5-5.1c0-.218 0-.312-.172-.312-.078 0-.094 0-.28.1a1.225 1.225 0 0 1-.234.156c-.33-.188-.782-.266-1.204-.266-.36 0-2.156 0-2.156 1.563 0 1.25 1.484 1.515 1.86 1.578l.765.125c.47.1.953.406.953.906 0 .922-1.093.922-1.343.922-.6 0-1.36-.188-1.704-1.344-.062-.234-.078-.25-.28-.25-.25 0-.25.03-.25.313v1.375c0 .218 0 .312.187.312.078 0 .093 0 .343-.203l.313-.22c.53.422 1.172.422 1.4.422.657 0 2.157-.156 2.157-1.734 0-.578-.313-.97-.547-1.188-.5-.406-.906-.484-1.547-.594-.766-.14-1.484-.265-1.484-.843 0-.782 1.062-.782 1.312-.782 1.328 0 1.406.844 1.422 1.14.016.156.1.156.25.156.25 0 .25-.03.25-.312zm0 0"/></symbol><symbol id="g" class="F"><path d="M3.97-3.344l1.5-1.22c.156-.125.28-.234 1.1-.234v-.516c-.313.032-.548.032-1 .032-.313 0-.97 0-1.25-.032v.516c.14 0 .42.047.42.14 0 .048-.063.095-.094.1l-2.172 1.75v-5.5l-2.062.094v.515c.734 0 .828 0 .828.47v6.702H.422V0c.266-.03 1.094-.03 1.422-.03L3.266 0v-.516h-.83V-2.11l.64-.516 1.438 1.86c.093.093.093.124.093.124 0 .125-.25.125-.406.125V0c.28-.03 1.063-.03 1.4-.03L6.875 0v-.516c-.188 0-.438 0-.563-.015-.17-.03-.218-.063-.343-.235zm0 0"/></symbol><symbol id="h" class="F"><path d="M4.75-3v.016c-.14.11-.25.25-.4.375L2.624-.875c-.234.234-.672.563-.672.828 0 .172.156.328.344.328.172 0 .25-.125.344-.22l2.375-2.374c.046-.047.14-.172.203-.172.078 0 .156.125.203.17L7.812.063c.094.093.204.218.344.218a.337.337 0 0 0 .328-.312v-.032c0-.234-.406-.546-.625-.78L6.1-2.58c-.14-.14-.265-.297-.42-.406L7.452-4.75c.344-.344 1.03-.9 1.03-1.188a.33.33 0 0 0-.328-.328c-.156 0-.265.14-.36.235L5.42-3.67c-.047.046-.125.17-.203.17-.063 0-.157-.125-.203-.172L2.64-6.047c-.094-.094-.172-.22-.344-.22a.334.334 0 0 0-.344.329c0 .265.453.593.688.828l1.718 1.734c.14.125.25.266.39.375zm0 0"/></symbol><symbol id="i" class="F"><path d="M7.875-2.75c.203 0 .422 0 .422-.234 0-.25-.22-.25-.422-.25h-6.47c-.203 0-.422 0-.422.25 0 .234.22.234.422.234zm0 0"/></symbol><symbol id="j" class="F"><path d="M9.97-2.75c-.656.5-.985 1-1.078 1.14-.532.83-.625 1.58-.625 1.594 0 .14.14.14.234.14.203 0 .22-.016.266-.234.265-1.172.968-2.172 2.328-2.72.14-.046.172-.077.172-.155 0-.094-.063-.125-.094-.14A3.72 3.72 0 0 1 8.75-5.922c-.03-.156-.047-.187-.25-.187-.094 0-.234 0-.234.14 0 .032.093.782.61 1.578a4.34 4.34 0 0 0 1.094 1.157H1.094c-.22 0-.438 0-.438.25 0 .234.22.234.438.234zm0 0"/></symbol><symbol id="k" class="F"><path d="M4.984-3.938c.25-.374.485-.546.86-.578.078 0 .156 0 .156-.14 0-.032-.016-.1-.094-.1-.172 0-.4.032-.562.032-.22 0-.516-.032-.72-.032-.063 0-.14.032-.14.157 0 .093.093.093.124.093.22.016.282.1.282.204 0 .11-.047.17-.125.28L2.484-.655l-.64-3.563c-.016-.062-.016-.078-.016-.1 0-.187.4-.187.438-.187.125 0 .218 0 .218-.14a.117.117 0 0 0-.125-.11l-.9.032c-.172 0-.6-.032-.782-.032-.062 0-.14.032-.14.157 0 .093.094.093.172.093.4 0 .406.047.437.235l.766 4.234c.016.14.03.188.156.188.14 0 .172-.047.25-.157zm0 0"/></symbol><symbol id="l" class="F"><path d="M7.22-3.938l.125-.187c.14-.188.312-.36.656-.4.078 0 .156 0 .156-.14 0-.047-.03-.1-.094-.1-.156 0-.36.032-.53.032-.235 0-.548-.032-.766-.032-.047 0-.157 0-.157.157 0 .093.094.093.125.093.157.016.39.063.39.25 0 .08-.078.204-.1.25L5.048-.78l-.375-3.53c0-.188.406-.204.484-.204.094 0 .188 0 .188-.14 0-.016 0-.1-.125-.1s-.297.016-.422.032h-.47c-.156 0-.562-.032-.72-.032-.046 0-.14 0-.14.157 0 .093.078.093.172.093.296 0 .343.063.36.125a4.86 4.86 0 0 0 .047.454L2.125-.78l-.36-3.422c0-.03-.015-.094-.015-.1 0-.203.438-.203.484-.203.094 0 .188 0 .188-.14 0-.032-.016-.1-.1-.1l-.9.032c-.234 0-.53-.032-.734-.032-.08 0-.14.032-.14.157 0 .093.078.093.187.093.33 0 .33.047.36.22l.453 4.25c.016.14.03.187.156.187.1 0 .172-.063.203-.14l2.172-3.578.4 3.53c.016.156.048.188.157.188S4.78.078 4.828 0zm0 0"/></symbol><symbol id="m" class="F"><path d="M2.938-.97h-.22c0 .094-.062.406-.14.453-.03.032-.453.032-.53.032h-.97l.984-.72c.454-.312.876-.593.876-1.124 0-.64-.6-.985-1.313-.985-.672 0-1.172.376-1.172.876 0 .25.22.296.297.296a.283.283 0 0 0 .281-.296.27.27 0 0 0-.281-.282c.14-.234.438-.375.766-.375.484 0 .9.28.9.766 0 .422-.297.75-.672 1.062L.516-.234C.47-.187.453-.187.453-.156V0h2.313zm0 0"/></symbol><symbol id="n" class="F"><path d="M1.984-3.172c0-.14-.015-.14-.187-.14C1.453-3 .9-3 .797-3H.72v.22h.078a2.07 2.07 0 0 0 .734-.14v2.5c0 .14 0 .202-.53.202H.75V0l1-.016L2.766 0v-.22h-.25c-.532 0-.532-.062-.532-.203zm0 0"/></symbol><clipPath id="o"><path d="M329 90h37.93v42H329zm0 0"/></clipPath><clipPath id="p"><path d="M329 48h37.93v41H329zm0 0"/></clipPath><path id="q" d="M343.72 153.508c0-4.832-3.918-8.75-8.754-8.75s-8.754 3.918-8.754 8.75a8.755 8.755 0 0 0 17.508 0zm0 0"/><path id="r" d="M357.89 110.988c0-4.832-3.917-8.754-8.75-8.754a8.755 8.755 0 000 17.508c4.833 0 8.75-3.918 8.75-8.754zm0 0"/><path id="s" d="M329.547 110.988a8.755 8.755 0 10-17.506.002 8.755 8.755 0 0017.506-.002zm0 0"/><path id="t" d="M301.2 110.988a8.755 8.755 0 10-17.51.002 8.755 8.755 0 0017.51-.002zm0 0"/><path id="u" d="M301.2 68.469a8.755 8.755 0 10-17.51.001 8.755 8.755 0 0017.51-.001zm0 0"/><path id="v" d="M343.719 25.95a8.755 8.755 0 10-17.506.002 8.755 8.755 0 0017.506-.003zm0 0"/></defs><g class="G H I"><path d="M88.422 153.508a8.58 8.58 0 0 0-8.578-8.578 8.58 8.58 0 0 0-8.578 8.578c0 4.738 3.84 8.582 8.578 8.582s8.578-3.844 8.578-8.582zm-28.344 0a8.58 8.58 0 0 0-17.16 0c0 4.738 3.84 8.582 8.578 8.582a8.584 8.584 0 0 0 8.582-8.582zm-28.348 0a8.58 8.58 0 1 0-17.16.005 8.58 8.58 0 0 0 17.16-.005zm70.868-42.52a8.58 8.58 0 0 0-8.578-8.578c-4.74 0-8.582 3.84-8.582 8.578a8.584 8.584 0 0 0 8.582 8.582c4.734 0 8.578-3.843 8.578-8.582zm-28.348 0a8.577 8.577 0 0 0-8.578-8.578c-4.738 0-8.582 3.84-8.582 8.578a8.584 8.584 0 0 0 8.582 8.582c4.738 0 8.578-3.843 8.578-8.582zm-28.348 0a8.577 8.577 0 1 0-17.156 0c0 4.74 3.84 8.582 8.578 8.582a8.58 8.58 0 0 0 8.578-8.582zm-28.347 0a8.577 8.577 0 1 0-17.157 0c0 4.74 3.84 8.582 8.58 8.582s8.578-3.843 8.578-8.582zm85.043-42.52a8.58 8.58 0 0 0-8.578-8.578c-4.74 0-8.582 3.84-8.582 8.578s3.843 8.578 8.582 8.578a8.58 8.58 0 0 0 8.578-8.578zm-28.348 0a8.577 8.577 0 0 0-8.578-8.578c-4.738 0-8.582 3.84-8.582 8.578s3.844 8.578 8.582 8.578a8.577 8.577 0 0 0 8.578-8.578zm-28.348 0a8.577 8.577 0 1 0-17.156 0 8.577 8.577 0 1 0 17.156 0zm-28.347 0a8.577 8.577 0 1 0-17.157 0 8.577 8.577 0 1 0 17.157 0zm70.867-42.52a8.577 8.577 0 1 0-17.156-.001 8.577 8.577 0 1 0 17.156 0zm-28.344 0c0-4.74-3.844-8.58-8.582-8.58a8.577 8.577 0 1 0 0 17.156c4.738 0 8.582-3.84 8.582-8.578zm-28.348 0a8.577 8.577 0 1 0-8.578 8.577 8.577 8.577 0 0 0 8.578-8.578zm0 0" class="J"/><path d="M82.996 144.047l7.723-23.16" class="B"/><path d="M88.828 121.516c.598.093 1.797-.66 1.984-.914 0 .316.504 1.64 1.04 1.92" class="C D E"/><path d="M58.555 146.46l28.086-28.093" class="B"/><path d="M84.668 118.086c.492.352 1.902.2 2.184.07-.14.282-.282 1.688.07 2.184" class="C D E"/><path d="M31.703 148.38l53.37-32.024" class="B"/><path d="M83.227 115.605c.394.46 1.793.665 2.1.598-.203.238-.683 1.57-.46 2.137" class="C D E"/><path d="M76.69 144.047l-7.722-23.16" class="B"/><path d="M67.836 122.523c.535-.28 1.04-1.605 1.04-1.92.188.253 1.387 1.007 1.984.914" class="C D E"/><path d="M54.652 144.047l7.72-23.16" class="B"/><path d="M60.48 121.516c.602.093 1.797-.66 1.985-.914 0 .316.504 1.64 1.043 1.92" class="C D E"/><path d="M30.203 146.457l28.1-28.1" class="B"/><path d="M56.32 118.086c.496.352 1.903.2 2.184.07-.14.282-.28 1.688.07 2.184" class="C D E"/><path d="M72.8 146.46l-28.1-28.092" class="B"/><path d="M44.418 120.34c.352-.496.2-1.902.07-2.184.282.14 1.692.282 2.184-.07" class="C D E"/><path d="M48.344 144.047l-7.723-23.16" class="B"/><path d="M39.488 122.523c.535-.28 1.04-1.605 1.04-1.92.2.253 1.386 1.007 1.984.914" class="C D E"/><path d="M26.305 144.047l7.718-23.16" class="B"/><path d="M32.137 121.516c.597.093 1.793-.66 1.984-.914 0 .316.504 1.64 1.04 1.92" class="C D E"/><path d="M71.293 148.38l-53.37-32.024" class="B"/><path d="M18.13 118.34c.22-.567-.258-1.9-.465-2.137.31.067 1.71-.137 2.102-.598" class="C D E"/><path d="M44.44 146.46l-28.1-28.093" class="B"/><path d="M16.07 120.34c.352-.496.21-1.902.07-2.184.282.14 1.692.282 2.188-.07" class="C D E"/><path d="M19.996 144.047l-7.72-23.16" class="B"/><path d="M11.14 122.523c.536-.28 1.04-1.605 1.04-1.92.19.253 1.386 1.007 1.984.914" class="C D E"/><path d="M94.02 101.016V78.902" class="B"/><path d="M92.422 80.098c.598-.102 1.496-1.196 1.598-1.496.097.3.996 1.394 1.6 1.496" class="C D E"/><path d="M71.203 102.69L88.23 77.148" class="B"/><path d="M86.242 77.262c.55.246 1.906-.168 2.156-.364-.085.305.055 1.715.497 2.13" class="C D E"/><path d="M45.3 105.004l40.372-30.277" class="B"/><path d="M83.758 74.172c.44.418 1.855.476 2.152.38-.18.258-.515 1.633-.238 2.172" class="C D E"/><path d="M17.898 106.53l66.8-33.398" class="B"/><path d="M82.906 72.242c.356.492 1.74.805 2.047.758-.223.223-.8 1.516-.62 2.094" class="C D E"/><path d="M88.484 102.69L71.457 77.148" class="B"/><path d="M70.793 79.027c.44-.414.582-1.824.5-2.13.246.196 1.602.6 2.152.364" class="C D E"/><path d="M65.672 101.016V78.902" class="B"/><path d="M64.078 80.098c.598-.102 1.492-1.196 1.594-1.496.098.3.996 1.394 1.594 1.496" class="C D E"/><path d="M42.855 102.69l17.028-25.543" class="B"/><path d="M57.895 77.262c.554.246 1.906-.168 2.156-.364-.082.305.054 1.715.496 2.13" class="C D E"/><path d="M16.957 105.004l40.367-30.277" class="B"/><path d="M55.414 74.172c.438.418 1.852.476 2.152.38-.18.258-.52 1.633-.242 2.172" class="C D E"/><path d="M86.04 105.004L45.667 74.727" class="B"/><path d="M45.668 76.723c.28-.54-.06-1.914-.238-2.172.3.097 1.715.04 2.152-.38" class="C D E"/><path d="M60.137 102.69L43.11 77.148" class="B"/><path d="M42.445 79.027c.446-.414.582-1.824.5-2.13.246.196 1.602.6 2.153.364" class="C D E"/><path d="M37.324 101.016V78.902" class="B"/><path d="M35.73 80.098c.598-.102 1.493-1.196 1.594-1.496.098.3.996 1.394 1.594 1.496" class="C D E"/><path d="M14.508 102.69l17.03-25.543" class="B"/><path d="M29.547 77.262c.555.246 1.906-.168 2.156-.364-.082.305.055 1.715.496 2.13" class="C D E"/><path d="M85.098 106.53l-66.8-33.398" class="B"/><path d="M18.664 75.094c.18-.578-.402-1.87-.625-2.094.313.047 1.695-.266 2.05-.758" class="C D E"/><path d="M57.69 105.004L17.324 74.727" class="B"/><path d="M17.324 76.723c.278-.54-.062-1.914-.242-2.172.3.097 1.715.04 2.152-.38" class="C D E"/><path d="M31.793 102.69l-17.03-25.543" class="B"/><path d="M14.102 79.027c.44-.414.578-1.824.496-2.13.25.196 1.6.6 2.156.364" class="C D E"/><path d="M8.977 101.016V78.902" class="B"/><path d="M7.383 80.098c.597-.102 1.496-1.196 1.594-1.496.1.3.996 1.394 1.593 1.496" class="C D E"/><path d="M90.863 59.008l-7.718-23.164" class="B"/><path d="M82.008 37.484c.535-.285 1.04-1.605 1.04-1.922.19.25 1.387 1.008 1.984.915" class="C D E"/><path d="M68.824 59.008l7.723-23.164" class="B"/><path d="M74.656 36.477c.598.093 1.793-.664 1.985-.914 0 .316.504 1.636 1.04 1.92" class="C D E"/><path d="M44.38 61.422l28.1-28.098" class="B"/><path d="M70.496 33.043c.492.352 1.902.2 2.184.07-.14.282-.282 1.692.07 2.184" class="C D E"/><path d="M17.53 63.34l53.367-32.024" class="B"/><path d="M69.055 30.563c.4.464 1.793.667 2.1.597-.207.242-.683 1.574-.46 2.137" class="C D E"/><path d="M86.96 61.422L58.876 33.324" class="B"/><path d="M58.594 35.297c.35-.492.2-1.902.07-2.184.28.14 1.688.282 2.184-.07" class="C D E"/><path d="M62.516 59.008l-7.72-23.164" class="B"/><path d="M53.66 37.484c.54-.285 1.043-1.605 1.043-1.922.188.25 1.383 1.008 1.984.915" class="C D E"/><path d="M40.477 59.008L48.2 35.844" class="B"/><path d="M46.31 36.477c.597.093 1.796-.664 1.984-.914 0 .316.504 1.636 1.04 1.92" class="C D E"/><path d="M16.03 61.422l28.1-28.098" class="B"/><path d="M42.148 33.043c.493.352 1.903.2 2.184.07-.14.282-.28 1.692.07 2.184" class="C D E"/><path d="M85.465 63.34L32.094 31.316" class="B"/><path d="M32.3 33.297c.223-.563-.257-1.895-.46-2.137.308.07 1.707-.133 2.1-.597" class="C D E"/><path d="M58.617 61.418l-28.1-28.094" class="B"/><path d="M30.246 35.297c.352-.492.21-1.902.07-2.184.282.14 1.692.282 2.184-.07" class="C D E"/><path d="M34.168 59.008l-7.72-23.164" class="B"/><path d="M25.316 37.484c.536-.285 1.04-1.605 1.04-1.922.187.25 1.386 1.008 1.984.915" class="C D E"/><path d="M12.133 59.008l7.72-23.164" class="B"/><path d="M17.96 36.477c.6.093 1.798-.664 1.985-.914 0 .316.504 1.636 1.04 1.92" class="C D E"/></g><use xlink:href="#A" x="94.739" y="134.907"/><use xlink:href="#G" x="104.149" y="136.401"/><use xlink:href="#A" x="101.826" y="92.387"/><use xlink:href="#H" x="111.235" y="93.882"/><use xlink:href="#B" x="94.739" y="50.615"/><use xlink:href="#q" class="G H I J"/><use xlink:href="#J" x="332.471" y="156.72"/><use xlink:href="#q" x="-28.35" class="G H I J"/><use xlink:href="#K" x="304.125" y="156.72"/><path d="M287.023 153.508a8.75 8.75 0 00-8.75-8.75c-4.836 0-8.753 3.918-8.753 8.75a8.752 8.752 0 008.753 8.754c4.832 0 8.75-3.918 8.75-8.754zm0 0" class="G H I J"/><use xlink:href="#L" x="275.778" y="156.72"/><g clip-path="url(#o)" class="G H I J"><use xlink:href="#r"/></g><use xlink:href="#L" x="346.644" y="114.201"/><use xlink:href="#s" class="G H I J"/><use xlink:href="#K" x="318.298" y="114.201"/><use xlink:href="#t" class="G H I J"/><use xlink:href="#L" x="289.951" y="114.201"/><use xlink:href="#t" x="-28.348" class="G H I J"/><use xlink:href="#L" x="261.605" y="114.201"/><g clip-path="url(#p)" class="G H I J"><path d="M357.89 68.469c0-4.832-3.917-8.754-8.75-8.754a8.755 8.755 0 000 17.508c4.833 0 8.75-3.918 8.75-8.754zm0 0"/></g><use xlink:href="#K" x="346.644" y="71.681"/><use xlink:href="#s" y="-42.519" class="G H I J"/><use xlink:href="#L" x="318.298" y="71.681"/><use xlink:href="#u" class="G H I J"/><use xlink:href="#L" x="289.951" y="71.681"/><use xlink:href="#u" x="-28.348" class="G H I J"/><use xlink:href="#K" x="261.605" y="71.681"/><use xlink:href="#v" class="G H I J"/><use xlink:href="#J" x="332.471" y="29.161"/><use xlink:href="#v" x="-28.348" class="G H I J"/><use xlink:href="#K" x="304.125" y="29.161"/><path d="M287.023 25.95c0-4.837-3.918-8.755-8.75-8.755a8.752 8.752 0 1 0 0 17.508c4.832 0 8.75-3.918 8.75-8.754zm0 0" class="G H I J"/><use xlink:href="#L" x="275.778" y="29.161"/><g class="G H I"><path d="M313.793 146.336l27.848-27.848" class="B"/><path d="M339.664 118.207c.496.352 1.906.21 2.188.07-.14.282-.282 1.692.07 2.184" class="C D E"/><path d="M309.828 143.883l7.6-22.832" class="B"/><path d="M315.547 121.68c.598.097 1.797-.66 1.984-.914 0 .316.504 1.64 1.04 1.922" class="C D E"/><path d="M303.4 143.883l-7.6-22.832" class="B"/><path d="M294.664 122.688c.535-.282 1.04-1.606 1.04-1.922.2.254 1.386 1.01 1.983.914" class="C D E"/><path d="M299.44 146.336l-27.843-27.848" class="B"/><path d="M271.316 120.46c.352-.49.21-1.9.07-2.183.282.14 1.692.282 2.184-.07" class="C D E"/><path d="M286.973 148.3l53.07-31.845" class="B"/><path d="M338.2 115.695c.394.46 1.792.664 2.1.598-.202.238-.683 1.57-.46 2.137" class="C D E"/><path d="M281.48 143.883l7.6-22.832" class="B"/><path d="M287.2 121.68c.6.097 1.796-.66 1.988-.914 0 .316.503 1.64 1.04 1.922" class="C D E"/><path d="M275.063 143.883l-7.6-22.832" class="B"/><path d="M266.316 122.688c.54-.282 1.043-1.606 1.043-1.922.188.254 1.383 1.01 1.985.914" class="C D E"/><path d="M343.512 102.547l-16.836-25.254" class="B"/><path d="M326.012 79.172c.44-.414.582-1.824.496-2.125.25.19 1.605.605 2.156.36" class="C D E"/><path d="M341.02 104.902l-40.1-30.07" class="B"/><path d="M300.93 76.824c.28-.54-.06-1.9-.24-2.172.297.102 1.71.043 2.153-.38" class="C D E"/><path d="M326.422 102.547l16.836-25.254" class="B"/><path d="M341.266 77.406c.554.246 1.906-.168 2.156-.36-.082.302.055 1.712.496 2.126" class="C D E"/><path d="M320.793 100.844v-21.77" class="B"/><path d="M319.2 80.27c.597-.098 1.49-1.196 1.593-1.493.098.297.996 1.395 1.594 1.493" class="C D E"/><path d="M315.164 102.547l-16.836-25.254" class="B"/><path d="M297.664 79.172c.44-.414.582-1.824.5-2.125.246.19 1.602.605 2.152.36" class="C D E"/><path d="M312.676 104.902l-40.094-30.07" class="B"/><path d="M272.582 76.824c.28-.54-.06-1.9-.238-2.172.3.102 1.715.043 2.152-.38" class="C D E"/><path d="M298.074 102.547L314.9 77.293" class="B"/><path d="M312.922 77.406c.55.246 1.902-.168 2.152-.36-.082.302.055 1.712.496 2.126" class="C D E"/><path d="M292.445 100.844v-21.77" class="B"/><path d="M290.852 80.27c.597-.098 1.496-1.196 1.593-1.493.102.297.996 1.395 1.594 1.493" class="C D E"/><path d="M272.215 104.902l40.094-30.07" class="B"/><path d="M310.395 74.273c.437.422 1.85.48 2.152.38-.18.26-.52 1.632-.238 2.17" class="C D E"/><path d="M269.727 102.547l16.836-25.254" class="B"/><path d="M284.574 77.406c.55.246 1.906-.168 2.153-.36-.082.302.054 1.712.5 2.126" class="C D E"/><path d="M345.93 58.844l-7.6-22.832" class="B"/><path d="M337.184 37.648c.54-.285 1.043-1.605 1.043-1.92.187.253 1.382 1.007 1.984.914" class="C D E"/><path d="M340.438 63.246l-53.07-31.84" class="B"/><path d="M287.57 33.387c.223-.563-.254-1.895-.46-2.133.308.066 1.706-.137 2.1-.602" class="C D E"/><path d="M324 58.844l7.613-22.832" class="B"/><path d="M329.723 36.64c.597.094 1.793-.66 1.984-.913 0 .316.504 1.636 1.04 1.92" class="C D E"/><path d="M299.62 61.293l27.844-27.844" class="B"/><path d="M325.492 33.168c.492.352 1.903.2 2.184.07-.14.282-.28 1.692.07 2.184" class="C D E"/><path d="M272.8 63.246l53.07-31.84" class="B"/><path d="M324.027 30.652c.39.465 1.793.668 2.102.602-.207.238-.684 1.57-.465 2.133" class="C D E"/><path d="M267.31 58.844l7.61-22.832" class="B"/><path d="M273.027 36.64c.602.094 1.797-.66 1.985-.913 0 .316.504 1.636 1.04 1.92" class="C D E"/></g><use xlink:href="#C" x="74.762" y="170.297"/><use xlink:href="#G" x="80.456" y="171.791"/><use xlink:href="#M" x="75.395" y="11.96"/><use xlink:href="#C" x="74.762" y="11.96"/><use xlink:href="#G" x="80.456" y="13.454"/><use xlink:href="#C" x="329.88" y="170.471"/><use xlink:href="#G" x="335.574" y="171.965"/><use xlink:href="#C" x="46.415" y="170.297"/><use xlink:href="#H" x="52.109" y="171.791"/><use xlink:href="#M" x="47.049" y="11.96"/><use xlink:href="#C" x="46.415" y="11.96"/><use xlink:href="#H" x="52.109" y="13.453"/><use xlink:href="#C" x="301.534" y="170.47"/><use xlink:href="#H" x="307.227" y="171.965"/><use xlink:href="#C" x="18.069" y="170.297"/><use xlink:href="#I" x="23.762" y="171.79"/><use xlink:href="#M" x="18.702" y="11.959"/><use xlink:href="#C" x="18.069" y="11.959"/><use xlink:href="#I" x="23.762" y="13.453"/><use xlink:href="#C" x="273.186" y="170.47"/><use xlink:href="#I" x="278.88" y="171.964"/><use xlink:href="#D" x="327.757" y="10.788"/><use xlink:href="#N" x="332.769" y="10.788"/><use xlink:href="#C" x="336.643" y="10.788"/><use xlink:href="#I" x="342.337" y="12.283"/><use xlink:href="#Q" x="346.808" y="10.788"/><use xlink:href="#C" x="349.574" y="10.788"/><use xlink:href="#H" x="355.268" y="12.283"/><use xlink:href="#O" x="359.737" y="10.788"/><use xlink:href="#D" x="295.152" y="10.788"/><use xlink:href="#N" x="300.164" y="10.788"/><use xlink:href="#C" x="304.039" y="10.788"/><use xlink:href="#H" x="309.733" y="12.283"/><use xlink:href="#O" x="314.202" y="10.788"/><use xlink:href="#D" x="235.887" y="10.788"/><use xlink:href="#N" x="240.899" y="10.788"/><use xlink:href="#C" x="244.774" y="10.788"/><use xlink:href="#G" x="250.468" y="12.283"/><use xlink:href="#Q" x="254.937" y="10.788"/><use xlink:href="#C" x="257.704" y="10.788"/><use xlink:href="#H" x="263.398" y="12.283"/><use xlink:href="#E" x="267.868" y="10.788"/><use xlink:href="#C" x="272.3" y="10.788"/><use xlink:href="#I" x="277.989" y="12.283"/><use xlink:href="#O" x="282.459" y="10.788"/><use xlink:href="#R" x="15.433" y="202.655"/><use xlink:href="#S" x="21.972" y="202.655"/><use xlink:href="#T" x="29.444" y="202.655"/><use xlink:href="#U" x="34.674" y="202.655"/><use xlink:href="#V" x="41.769" y="202.655"/><use xlink:href="#W" x="47.906" y="202.655"/><use xlink:href="#X" x="55.378" y="202.655"/><use xlink:href="#U" x="61.356" y="202.655"/><use xlink:href="#Y" x="68.463" y="202.655"/><use xlink:href="#V" x="75.935" y="202.655"/><use xlink:href="#Z" x="82.072" y="202.655"/><use xlink:href="#a" x="285.589" y="202.73"/><use xlink:href="#b" x="298.347" y="202.73"/><use xlink:href="#c" x="308.503" y="202.73"/><use xlink:href="#d" x="318.812" y="202.73"/><use xlink:href="#e" x="165.464" y="202.655"/><use xlink:href="#R" x="176.672" y="202.655"/><use xlink:href="#f" x="183.211" y="202.655"/><use xlink:href="#g" x="188.515" y="202.655"/><use xlink:href="#f" x="195.613" y="202.655"/><use xlink:href="#h" x="118.701" y="202.514"/><use xlink:href="#i" x="233.044" y="202.123"/><use xlink:href="#j" x="240.346" y="202.123"/><path d="M164.883 54.297h45.355m-45.355-11.34h45.355m-45.355-11.34h45.355m-45.355-11.332h45.355m-45.355 34.012V20.28m11.34 34.016V20.28m11.34 34.016V20.28m11.335 34.016V20.28m11.336 34.016V20.28" class="B G H I"/><use xlink:href="#F" x="130.924" y="39.947"/><use xlink:href="#k" x="140.589" y="41.441"/><use xlink:href="#P" x="150.275" y="39.947"/><path d="M164.883 42.957h45.355v-11.34h-45.355zm0 0"/><path d="M176.223 54.297h22.675v-11.34h-22.675zm0 0"/><path d="M164.883 110.988h45.355m-45.355-11.34h45.355m-45.355-11.335h45.355m-45.355-11.34h45.355M164.883 65.64h45.355m-45.355 45.347V65.633m11.34 45.355V65.633m11.34 45.355V65.633m11.335 45.355V65.633m11.336 45.355V65.633" class="B G H I"/><use xlink:href="#F" x="128.444" y="90.471"/><use xlink:href="#l" x="138.109" y="91.966"/><use xlink:href="#m" x="145.602" y="92.962"/><use xlink:href="#P" x="152.755" y="90.471"/><path d="M164.883 110.988h11.34v-11.34h-11.34zm0-34.015h11.34v-11.34h-11.34zm22.68 34.015h22.675v-11.34h-22.675zm0-34.015h22.675v-11.34h-22.675zm0 0"/><path d="M164.883 167.68h34.015m-34.015-11.336h34.015m-34.015-11.34h34.015m-34.015-11.34h34.015m-34.015-11.332h34.015m-34.015 45.348v-45.352m11.34 45.352v-45.352m11.34 45.352v-45.352m11.332 45.352v-45.352" class="B G H I"/><use xlink:href="#F" x="128.444" y="147.163"/><use xlink:href="#l" x="138.109" y="148.658"/><use xlink:href="#n" x="145.602" y="149.654"/><use xlink:href="#P" x="152.755" y="147.163"/><path d="M164.883 167.68h11.34v-45.352h-11.34zm22.68-22.676h11.335v-11.34h-11.335zm0 0"/></svg>