<svg xmlns="http://www.w3.org/2000/svg" xmlns:xlink="http://www.w3.org/1999/xlink" width="564.455" height="160.609" viewBox="0 0 423.341 120.457"><style>.B{overflow:visible}.C{stroke-miterlimit:10}.D{stroke:#000}.E{stroke-linecap:round}.F{stroke-linejoin:round}.G{stroke-width:1.196}.H{fill:none}.I{stroke-width:.797}.J{stroke-width:.638}.K{fill:#e5e5e5}.L{stroke-width:.956}.M{stroke-dasharray:2.29143,1.99255}</style><defs><symbol id="A" class="B"><path d="M1.328-.828c.53-.578.828-.828 1.188-1.14l.968-.89c.954-.922 1.172-1.407 1.172-1.454 0-.093-.093-.093-.1-.093-.077 0-.093.015-.155.1-.297.484-.5.64-.735.64-.25 0-.36-.156-.515-.328-.188-.22-.36-.422-.688-.422-.75 0-1.203.922-1.203 1.14 0 .047.03.1.1.1.093 0 .11-.047.14-.1.188-.468.766-.468.844-.468.203 0 .4.062.625.14.406.156.515.156.765.156-.36.422-1.187 1.14-1.375 1.297l-.906.844C.78-.625.422-.063.422.016c0 .093.1.093.125.093C.625.1.64.094.703-.016c.235-.36.53-.625.86-.625.218 0 .328.094.578.375.156.22.343.375.625.375 1 0 1.578-1.265 1.578-1.53 0-.048-.047-.1-.125-.1-.094 0-.1.062-.14.14-.235.64-.876.83-1.204.83-.188 0-.375-.063-.578-.125-.344-.125-.5-.172-.703-.172-.016 0-.172 0-.266.03zm0 0"/></symbol><symbol id="B" class="B"><path d="M3.656-3.984h.86c.203 0 .296 0 .296-.204 0-.11-.093-.11-.265-.11H3.72l.203-1.14.25-1.032c.078-.187.25-.343.47-.343.03 0 .296 0 .484.187a.557.557 0 00-.547.531c0 .235.188.36.375.36.266 0 .547-.235.547-.6 0-.453-.453-.687-.86-.687-.343 0-.968.187-1.265 1.172-.063.203-.094.312-.328 1.562H2.36c-.203 0-.312 0-.312.188 0 .125.094.125.28.125h.656L2.25-.047c-.188.97-.36 1.875-.875 1.875-.047 0-.28 0-.484-.187.468-.032.562-.39.562-.532 0-.234-.187-.36-.375-.36-.266 0-.547.234-.547.6 0 .437.438.687.844.687.547 0 .953-.594 1.125-.97.328-.625.547-1.828.563-1.906zm0 0"/></symbol><symbol id="C" class="B"><path d="M.453 1.22c-.078.343-.1.406-.547.406-.1 0-.218 0-.218.188 0 .078.046.125.124.125l.83-.032 1 .032c.046 0 .17 0 .17-.204 0-.11-.093-.11-.234-.11-.5 0-.5-.063-.5-.156 0-.125.422-1.75.484-2 .125.297.407.64.922.64C3.64.11 4.89-1.344 4.89-2.812c0-.938-.58-1.594-1.33-1.594-.5 0-.984.36-1.312.75a.87.87 0 00-.89-.75c-.47 0-.657.4-.735.562-.188.344-.313.938-.313.97 0 .1.094.1.1.1.1 0 .1-.016.172-.235.172-.703.375-1.188.734-1.188.172 0 .313.08.313.454 0 .234-.032.343-.08.515zm1.75-4.328c.063-.266.344-.547.516-.704.36-.296.64-.374.812-.374.4 0 .64.343.64.937s-.327 1.734-.515 2.1C3.312-.438 2.844-.1 2.47-.1c-.656 0-.78-.828-.78-.9 0-.016 0-.03.03-.156zm0 0"/></symbol><symbol id="D" class="B"><path d="M3.594-2.22c0-.765-.094-1.328-.406-1.812-.22-.313-.657-.594-1.204-.594C.36-4.625.36-2.72.36-2.22S.36.14 1.985.14c1.6 0 1.6-1.86 1.6-2.36zm-1.6 2.156c-.328 0-.75-.187-.9-.75C1-1.22 1-1.796 1-2.313s0-1.046.094-1.42a.91.91 0 01.89-.704c.375 0 .735.235.86.64.1.375.125.875.125 1.485 0 .515 0 1.03-.094 1.468-.14.64-.6.78-.9.78zm0 0"/></symbol><symbol id="E" class="B"><path d="M2.328-4.438c0-.187 0-.187-.203-.187-.453.438-1.078.438-1.36.438v.25c.157 0 .626 0 1-.188v3.547c0 .234 0 .328-.687.328H.812V0l1.235-.03 1.25.03v-.25H3.03c-.703 0-.703-.094-.703-.328zm0 0"/></symbol><symbol id="F" class="B"><path d="M3.22-1.578h2.14c.094 0 .25 0 .25-.156 0-.188-.156-.188-.25-.188H3.22v-2.14c0-.08 0-.25-.156-.25-.172 0-.172.156-.172.25v2.14H.75c-.094 0-.266 0-.266.172s.157.172.266.172H2.9v2.14c0 .094 0 .266.157.266.172 0 .172-.172.172-.265zm0 0"/></symbol><symbol id="G" class="B"><path d="M3.297 2.4c0-.03 0-.046-.172-.218C1.89.922 1.562-.968 1.562-2.5c0-1.734.375-3.47 1.6-4.703.125-.125.125-.14.125-.172 0-.078-.03-.1-.094-.1-.1 0-1 .688-1.594 1.954C1.1-4.438.984-3.328.984-2.5c0 .78.1 1.984.657 3.125C2.25 1.844 3.094 2.5 3.203 2.5c.063 0 .094-.03.094-.1zm0 0"/></symbol><symbol id="H" class="B"><path d="M2.875-2.5c0-.766-.1-1.97-.656-3.1C1.625-6.827.766-7.483.672-7.483a.107.107 0 00-.11.109c0 .03 0 .047.188.234.984.985 1.547 2.563 1.547 4.64 0 1.72-.36 3.47-1.594 4.72-.14.125-.14.14-.14.172 0 .062.046.11.11.11.094 0 1-.688 1.578-1.953.516-1.094.625-2.203.625-3.047zm0 0"/></symbol><symbol id="I" class="B"><path d="M2.266-4.36a.276.276 0 00-.282-.265c-.187 0-.4.188-.4.4 0 .1.078.266.28.266.188 0 .4-.203.4-.4zM.844-.81C.813-.72.78-.64.78-.516c0 .33.266.58.656.58.688 0 1-.954 1-1.063 0-.094-.093-.094-.11-.094-.094 0-.1.047-.14.125-.157.563-.454.844-.735.844-.14 0-.172-.094-.172-.25s.047-.28.1-.438l.218-.562.344-.9A.5.5 0 002-2.486c0-.328-.28-.593-.656-.593C.64-3.078.328-2.125.328-2c0 .078.094.078.125.078.094 0 .094-.03.125-.1.172-.593.485-.843.735-.843.11 0 .17.047.17.234 0 .172-.03.266-.203.704zm0 0"/></symbol><symbol id="J" class="B"><path d="M2.188-4.625c0-.016.015-.1.015-.1 0-.046-.015-.11-.1-.11-.14 0-.718.063-.9.078-.047 0-.156.016-.156.157 0 .093.1.093.187.093.33 0 .33.063.33.1s-.016.093-.016.156L.563-.312c-.047.124-.047.14-.047.156 0 .1.093.218.25.218.187 0 .265-.124.312-.28.016-.032.313-1.266.344-1.36.5.047.9.22.9.578 0 .03 0 .063-.015.14-.03.094-.03.14-.03.22 0 .484.406.703.75.703.67 0 .875-1.047.875-1.063 0-.094-.08-.094-.1-.094-.094 0-.1.047-.14.172-.08.297-.266.797-.6.797-.187 0-.25-.172-.25-.36 0-.124 0-.14.047-.312a.724.724 0 00.031-.219c0-.625-.828-.718-1.125-.734.204-.125.454-.36.58-.47.36-.328.703-.656 1.093-.656.078 0 .172.016.235.094a.396.396 0 00-.36.39c0 .14.1.25.266.25a.41.41 0 00.406-.437.5.5 0 00-.531-.5c-.406 0-.766.297-1.125.625-.297.265-.516.484-.813.6zm0 0"/></symbol><symbol id="K" class="B"><path d="M2.36-.781a.784.784 0 00-.782-.781.78.78 0 00-.766.78.774.774 0 101.547 0zm0 0"/></symbol><symbol id="L" class="B"><path d="M5.188-1.578c.11 0 .28 0 .28-.156 0-.188-.17-.188-.28-.188H1.03c-.1 0-.28 0-.28.172s.156.172.28.172zm0 0"/></symbol><symbol id="M" class="B"><path d="M8.22-3.906c.172 0 .406 0 .406-.235 0-.25-.234-.25-.406-.25H1.063c-.172 0-.39 0-.39.25 0 .235.22.235.406.235zm0 2.312c.172 0 .406 0 .406-.234s-.234-.234-.406-.234H1.08c-.188 0-.407 0-.407.234s.22.234.4.234zm0 0"/></symbol><symbol id="N" class="B"><path d="M4-3.6c.063-.312.344-1.406 1.172-1.406.062 0 .344 0 .594.157a.678.678 0 00-.563.64c0 .188.125.422.453.422.266 0 .64-.22.64-.703 0-.6-.702-.78-1.11-.78-.687 0-1.11.625-1.25.906-.296-.78-.953-.906-1.296-.906C1.406-5.28.72-3.734.72-3.438c0 .1.125.1.14.1.094 0 .125-.016.157-.125.406-1.266 1.203-1.563 1.61-1.563.22 0 .64.1.64.797 0 .375-.203 1.172-.64 2.844-.203.734-.6 1.25-1.14 1.25-.08 0-.344 0-.594-.156.296-.063.562-.313.562-.656 0-.313-.266-.407-.453-.407-.36 0-.656.297-.656.688 0 .547.594.78 1.125.78.797 0 1.218-.828 1.25-.906a1.32 1.32 0 001.297.906c1.234 0 1.906-1.53 1.906-1.828 0-.125-.094-.125-.14-.125-.1 0-.126.047-.157.125-.4 1.28-1.203 1.578-1.578 1.578-.47 0-.672-.4-.672-.797 0-.265.078-.53.203-1.047zm0 0"/></symbol><symbol id="O" class="B"><path d="M7.203-3.328c0-.22-.062-.328-.14-.328-.047 0-.14.078-.14.265-.047.954-.703 1.5-1.406 1.5-.625 0-1.094-.42-1.594-.843-.5-.47-1.016-.922-1.703-.922-1.078 0-1.672 1.094-1.672 2 0 .328.125.328.14.328.1 0 .14-.203.14-.234.047-1.094.78-1.532 1.4-1.532.626 0 1.1.422 1.595.844.515.47 1.03.922 1.703.922 1.093 0 1.687-1.094 1.687-2zm0 0"/></symbol><clipPath id="P"><path d="M0 0h423.34v120.457H0zm0 0"/></clipPath><clipPath id="Q"><path d="M340 23h83.34v92H340zm0 0"/></clipPath><clipPath id="R"><path d="M340 32h83.34v66H340zm0 0"/></clipPath></defs><g clip-path="url(#P)"><path d="M0 120.457h424.93V-.453H0zm0 0" fill="#fff"/></g><path d="M47.035 17.2a10.96 10.96 0 00-10.96-10.958 10.96 10.96 0 00-10.958 10.957A10.96 10.96 0 0036.074 28.16 10.96 10.96 0 0047.035 17.2zm0 0" stroke="red" class="C G K"/><use xlink:href="#A" x="31.523" y="18.599"/><use xlink:href="#D" x="36.157" y="20.093"/><path d="M126.84 17.2a10.96 10.96 0 00-10.957-10.958 10.96 10.96 0 00-10.961 10.957 10.96 10.96 0 0010.96 10.961A10.96 10.96 0 00126.84 17.2zm0 0" class="K"/><use xlink:href="#A" x="111.33" y="18.599"/><use xlink:href="#E" x="115.963" y="20.093"/><g class="C D H"><path d="M50.62 17.2h49.758" class="G"/><path d="M98.47 14.652c.156.953 1.9 2.39 2.4 2.547-.48.16-2.234 1.598-2.4 2.55" class="E F L"/></g><use xlink:href="#B" x="62.879" y="10.792"/><use xlink:href="#E" x="67.756" y="12.287"/><use xlink:href="#G" x="72.226" y="10.792"/><use xlink:href="#A" x="76.1" y="10.792"/><use xlink:href="#D" x="80.733" y="12.287"/><use xlink:href="#H" x="85.202" y="10.792"/><path d="M220.82 17.2a10.96 10.96 0 00-10.957-10.958 10.96 10.96 0 00-10.96 10.957 10.96 10.96 0 0010.96 10.961A10.96 10.96 0 00220.82 17.2zm0 0" class="K"/><use xlink:href="#A" x="205.885" y="18.599"/><use xlink:href="#I" x="210.518" y="20.093"/><path d="M300.63 17.2a10.96 10.96 0 00-10.957-10.958 10.96 10.96 0 00-10.961 10.957 10.96 10.96 0 0010.96 10.961A10.96 10.96 0 00300.63 17.2zm0 0" class="K"/><use xlink:href="#A" x="280.648" y="18.184"/><use xlink:href="#I" x="285.281" y="19.678"/><use xlink:href="#F" x="288.1" y="19.678"/><use xlink:href="#E" x="294.216" y="19.678"/><g class="C D H"><path d="M224.406 17.2h49.762" class="G"/><path d="M272.254 14.652c.16.953 1.914 2.39 2.4 2.547-.476.16-2.23 1.598-2.4 2.55" class="E F L"/></g><use xlink:href="#B" x="232.773" y="10.792"/><use xlink:href="#I" x="237.651" y="12.287"/><use xlink:href="#F" x="240.469" y="12.287"/><use xlink:href="#E" x="246.585" y="12.287"/><use xlink:href="#G" x="251.055" y="10.792"/><use xlink:href="#A" x="254.929" y="10.792"/><use xlink:href="#I" x="259.562" y="12.287"/><use xlink:href="#H" x="262.879" y="10.792"/><g class="C D H"><path d="M148.887 17.2h45.472" class="G"/><path d="M192.45 14.652c.16.953 1.9 2.39 2.4 2.547-.48.16-2.23 1.598-2.4 2.55" class="E F L"/></g><use xlink:href="#K" x="131.138" y="17.976"/><use xlink:href="#K" x="136.233" y="17.976"/><use xlink:href="#K" x="141.318" y="17.976"/><use xlink:href="#B" x="145.825" y="10.792"/><use xlink:href="#I" x="150.703" y="12.287"/><use xlink:href="#G" x="154.019" y="10.792"/><use xlink:href="#A" x="157.894" y="10.792"/><use xlink:href="#I" x="162.527" y="12.287"/><use xlink:href="#L" x="165.346" y="12.287"/><use xlink:href="#E" x="171.572" y="12.287"/><use xlink:href="#H" x="176.042" y="10.792"/><path d="M394.6 17.2a10.96 10.96 0 00-10.958-10.958 10.96 10.96 0 00-10.96 10.957 10.96 10.96 0 0010.96 10.961 10.96 10.96 0 0010.957-10.96zm0 0" stroke="#00b200" class="C G K"/><use xlink:href="#A" x="378.878" y="18.599"/><use xlink:href="#J" x="383.512" y="20.093"/><g class="C D H"><path d="M322.676 17.2h45.472" class="G"/><path d="M366.234 14.652c.16.953 1.914 2.39 2.395 2.547-.48.16-2.234 1.598-2.395 2.55" class="E F L"/></g><use xlink:href="#K" x="304.924" y="17.976"/><use xlink:href="#K" x="310.019" y="17.976"/><use xlink:href="#K" x="315.104" y="17.976"/><use xlink:href="#B" x="318.026" y="10.792"/><use xlink:href="#J" x="322.903" y="12.287"/><use xlink:href="#G" x="327.805" y="10.792"/><use xlink:href="#A" x="331.679" y="10.792"/><use xlink:href="#J" x="336.313" y="12.287"/><use xlink:href="#L" x="340.716" y="12.287"/><use xlink:href="#E" x="346.943" y="12.287"/><use xlink:href="#H" x="351.412" y="10.792"/><use xlink:href="#M" x="399.904" y="19.775"/><use xlink:href="#N" x="412.524" y="19.775"/><g class="C H"><path d="M71.75 68.84c0-18.785-15.227-34.016-34.016-34.016S3.72 50.054 3.72 68.84s15.23 34.02 34.015 34.02S71.75 87.63 71.75 68.84zm0 0" class="D I M"/><path d="M9.387 80.18h1.453l1.453-.008 1.457-.012 1.453-.03 1.453-.063 1.453-.12 1.453-.23 1.454-.406 1.453-.684 1.453-1.082 1.453-1.598 1.453-2.215 1.453-2.87 1.453-3.465 1.453-3.848 1.454-3.895 1.453-3.515 1.453-2.672L37 52.012l1.453-.004 1.453 1.437 1.457 2.66 1.453 3.508 1.454 3.9 1.453 3.847 1.453 3.47 1.453 2.874 1.453 2.223 1.453 1.605 1.453 1.082 1.453.688 1.454.4 1.453.234 1.453.12 1.453.063 1.453.027 1.453.016 2.906.008" stroke="#009" class="G"/><g class="D"><path d="M9.387 80.18h55.988" class="I"/><path d="M63.82 78.1c.13.777 1.555 1.94 1.942 2.07-.387.13-1.813 1.297-1.942 2.074" class="E F J"/><path d="M37.734 94.352v-48.9" class="I"/><path d="M35.664 47.008c.777-.13 1.94-1.555 2.07-1.942.13.387 1.297 1.813 2.075 1.942" class="E F J"/></g></g><use xlink:href="#A" x="11.715" y="114.646"/><use xlink:href="#D" x="16.348" y="116.14"/><use xlink:href="#O" x="23.585" y="114.646"/><use xlink:href="#C" x="34.101" y="114.646"/><use xlink:href="#D" x="39.114" y="116.14"/><use xlink:href="#G" x="43.583" y="114.646"/><use xlink:href="#A" x="47.457" y="114.646"/><use xlink:href="#D" x="52.09" y="116.14"/><use xlink:href="#H" x="56.56" y="114.646"/><g class="C H"><path d="M245.54 68.84c0-18.785-15.23-34.016-34.02-34.016s-34.016 15.23-34.016 34.016 15.23 34.02 34.016 34.02 34.02-15.23 34.02-34.02zm0 0" class="D I M"/><path d="M183.176 80.074l.82-.176.82-.4.82-.836.825-1.52.82-2.456.82-3.465.825-4.262.82-4.422.82-3.648.82-1.97.825.27.82 2.347.82 3.754.82 4.184.825 3.734.82 2.727.82 1.586.825.578.82-.207.82-.758.82-1.145.825-1.445.82-1.683.82-1.887.82-2.05.824-2.173.82-2.22.82-2.207.825-2.11.82-1.93.82-1.664.82-1.328.824-.926.82-.472.82-.004.825.47.82.9.82 1.316.82 1.66.824 1.926.82 2.106 1.64 4.417.824 2.145.82 1.984.82 1.723.824 1.332.82.766.82.023.82-.86.824-1.7 1.64-4.493.82-1.57.825-.328.82 1.117.82 2.34.824 3.008.82 3.03.82 2.563.82 1.883.825 1.21.82.692.82.35.824.16.82.067.82.023.82.016h.825" stroke="#009" class="G"/><g class="D"><path d="M183.176 80.18h55.984" class="I"/><path d="M237.605 78.1c.13.777 1.555 1.94 1.946 2.07-.4.13-1.817 1.297-1.946 2.074" class="E F J"/><path d="M211.52 94.352v-48.9" class="I"/><path d="M209.45 47.008c.777-.13 1.94-1.555 2.07-1.942.132.387 1.296 1.813 2.074 1.942" class="E F J"/></g></g><use xlink:href="#A" x="187.23" y="114.646"/><use xlink:href="#I" x="191.863" y="116.14"/><use xlink:href="#O" x="197.947" y="114.646"/><use xlink:href="#C" x="208.463" y="114.646"/><use xlink:href="#I" x="213.475" y="116.14"/><use xlink:href="#G" x="216.792" y="114.646"/><use xlink:href="#A" x="220.667" y="114.646"/><use xlink:href="#I" x="225.3" y="116.14"/><use xlink:href="#H" x="228.617" y="114.646"/><g clip-path="url(#Q)" class="C D H I M"><path d="M419.32 68.84c0-18.785-15.226-34.016-34.015-34.016S351.29 50.054 351.29 68.84s15.23 34.02 34.016 34.02 34.015-15.23 34.015-34.02zm0 0"/></g><g clip-path="url(#R)" class="C G H"><path d="M356.96 80.074l.638-.12.636-.243.637-.434.637-.738.637-1.164.636-1.707.637-2.324.637-2.9.636-3.33.637-3.437.637-3.12.633-2.34.636-1.16.637.187.637 1.532.637 2.582.636 3.2.637 3.36.637 3.073.636 2.485.637 1.707.637.887.637.093.636-.605.637-1.188.637-1.597.636-1.82.637-1.8.637-1.57.637-1.097.636-.46.637.246.637.902.636 1.446.637 1.793.637 1.906.637 1.84.636 1.6.637 1.262.637.867.636.438.637-.02.637-.54.637-1.12.636-1.8.637-2.507.637-3.23.637-3.844.636-4.207.637-4.176.637-3.715.636-2.742.637-1.445.637.12.637 1.634.636 2.925.637 3.778.637 4.156.636 4.066.637 3.555.637 2.78.637 1.84.636.848.637-.113.637-.96.636-1.633.637-2.035.637-2.086.637-1.8.636-1.176.637-.328.637.606.637 1.414.636 2.01.637 2.297.637 2.278.636 2.03.637 1.66.637 1.24.637.86.636.55.637.33.637.187.636.094.637.047.637.023 1.273.016h.637" stroke="#009"/></g><g class="C D H"><path d="M356.96 80.18h55.985" class="I"/><path d="M411.4 78.1c.13.777 1.555 1.94 1.942 2.07-.387.13-1.812 1.297-1.94 2.074" class="E F J"/><path d="M385.305 94.352v-48.9" class="I"/><path d="M383.234 47.008c.778-.13 1.942-1.555 2.07-1.942.13.387 1.298 1.813 2.075 1.942" class="E F J"/></g><use xlink:href="#A" x="358.638" y="114.646"/><use xlink:href="#J" x="363.271" y="116.14"/><use xlink:href="#O" x="370.94" y="114.646"/><use xlink:href="#C" x="381.456" y="114.646"/><use xlink:href="#J" x="386.469" y="116.14"/><use xlink:href="#G" x="391.37" y="114.646"/><use xlink:href="#A" x="395.245" y="114.646"/><use xlink:href="#J" x="399.878" y="116.14"/><use xlink:href="#H" x="404.78" y="114.646"/></svg>