<svg fill="#00a1ff" enable-background="new 0 0 1000 1000" viewBox="0 0 1000 1000" xmlns="http://www.w3.org/2000/svg"><path d="m500 10c-270.7 0-490 219.3-490 490s219.3 490 490 490 490-219.3 490-490c-.6-270.7-219.9-490-490-490zm-245 565.3c-41.6 0-75.3-33.7-75.3-75.3s33.7-75.3 75.3-75.3 75.3 33.7 75.3 75.3c0 41.7-33.7 75.3-75.3 75.3zm245 0c-41.7 0-75.3-33.7-75.3-75.3s33.7-75.3 75.3-75.3 75.3 33.7 75.3 75.3c0 41.7-33.6 75.3-75.3 75.3zm245 0c-41.6 0-75.3-33.7-75.3-75.3s33.7-75.3 75.3-75.3 75.3 33.7 75.3 75.3c0 41.7-33.6 75.3-75.3 75.3z"/></svg>