<svg viewBox="0 0 2331.5 2500" xmlns="http://www.w3.org/2000/svg"><path d="M1332.3 384.6v384.6l666.2 384.6V769.2zM0 769.2v384.6l333.1 192.3V961.5zm999.2 192.3l-333.1 192.3v1153.8L999.2 2500v-769.2l333.1 192.3v-384.6l-333.1-192.3z" fill="#e55b2d"/><path d="M1332.3 384.6L333.1 961.5v384.6l666.2-384.6v384.6l333.1-192.3V384.6zm999.2 192.3l-333.1 192.3v384.6l333.1-192.3zm-666.1 769.3l-333.1 192.3v384.6l333.1-192.3zm-333.1 576.9l-333.1-192.3V2500l333.1-192.3z" fill="#ed8e24"/><path d="M1332.3 0L0 769.2l333.1 192.3 999.2-576.9 666.2 384.6 333.1-192.3zm0 1153.8l-333.1 192.3 333.1 192.3 333.1-192.3z" fill="#f8bf3c"/></svg>