<svg fill="#00a1ff" stroke-linejoin="round" stroke-miterlimit="2" viewBox="0 0 279 219" xmlns="http://www.w3.org/2000/svg"><path d="m59.7 189c0 8.325-2.925 15.3-8.7 21.15s-12.825 8.7-21.15 8.7-15.3-2.925-21.15-8.7-8.7-12.825-8.7-21.15 2.925-15.3 8.7-21.15c5.775-5.775 12.825-8.7 21.15-8.7s15.3 2.925 21.15 8.7c5.775 5.85 8.7 12.9 8.7 21.15zm0-79.575c0 8.325-2.925 15.3-8.7 21.15s-12.825 8.7-21.15 8.7-15.3-2.925-21.15-8.7-8.7-12.825-8.7-21.15 2.925-15.3 8.7-21.15 12.825-8.7 21.15-8.7 15.3 2.925 21.15 8.7 8.7 12.9 8.7 21.15zm218.85 64.725v29.85c0 1.35-.525 2.55-1.5 3.525s-2.175 1.5-3.525 1.5h-189c-1.35 0-2.55-.525-3.525-1.5s-1.5-2.175-1.5-3.525v-29.85c0-1.35.525-2.55 1.5-3.525s2.175-1.5 3.525-1.5h189c1.35 0 2.55.525 3.525 1.5s1.5 2.175 1.5 3.525zm-218.85-144.3c0 8.325-2.925 15.3-8.7 21.15s-12.825 8.7-21.15 8.7-15.3-2.925-21.15-8.7-8.7-12.825-8.7-21.15 2.925-15.3 8.7-21.15 12.825-8.7 21.15-8.7 15.3 2.925 21.15 8.7 8.7 12.9 8.7 21.15zm218.85 64.65v29.85c0 1.35-.525 2.55-1.5 3.525s-2.175 1.5-3.525 1.5h-189c-1.35 0-2.55-.525-3.525-1.5s-1.5-2.175-1.5-3.525v-29.85c0-1.35.525-2.55 1.5-3.525s2.175-1.5 3.525-1.5h189c1.35 0 2.55.525 3.525 1.5s1.5 2.175 1.5 3.525zm0-79.575v29.85c0 1.35-.525 2.55-1.5 3.525s-2.175 1.5-3.525 1.5h-189c-1.35 0-2.55-.525-3.525-1.5s-1.5-2.175-1.5-3.525v-29.85c0-1.35.525-2.55 1.5-3.525s2.175-1.5 3.525-1.5h189c1.35 0 2.55.525 3.525 1.5s1.5 2.175 1.5 3.525z"/></svg>